<?xml version="1.0" encoding="UTF-8" standalone="no"?>
<!DOCTYPE svg PUBLIC "-//W3C//DTD SVG 1.1//EN"
 "http://www.w3.org/Graphics/SVG/1.1/DTD/svg11.dtd">
<!-- Generated by graphviz version 2.43.0 (0)
 -->
<!-- Title: MER_ContribuicaoSocios Pages: 1 -->
<svg width="775pt" height="708pt"
 viewBox="0.00 0.00 775.00 708.00" xmlns="http://www.w3.org/2000/svg" xmlns:xlink="http://www.w3.org/1999/xlink">
<g id="graph0" class="graph" transform="scale(1 1) rotate(0) translate(4 704)">
<title>MER_ContribuicaoSocios</title>
<polygon fill="white" stroke="transparent" points="-4,4 -4,-704 771,-704 771,4 -4,4"/>
<!-- contribuicao_gatewayPagamento -->
<g id="node1" class="node">
<title>contribuicao_gatewayPagamento</title>
<polygon fill="#ffffff" stroke="transparent" points="267,-499 267,-546 407,-546 407,-499 267,-499"/>
<polygon fill="#4a90d9" stroke="transparent" points="268,-529.5 268,-544.5 406,-544.5 406,-529.5 268,-529.5"/>
<polygon fill="none" stroke="black" points="268,-529.5 268,-544.5 406,-544.5 406,-529.5 268,-529.5"/>
<text text-anchor="start" x="271" y="-536.1" font-family="Arial" font-weight="bold" font-size="8.00">contribuicao_gatewayPagamento</text>
<polygon fill="none" stroke="black" points="268,-514.5 268,-529.5 336,-529.5 336,-514.5 268,-514.5"/>
<text text-anchor="start" x="271" y="-520.1" font-family="Arial" font-size="8.00">id</text>
<polygon fill="none" stroke="black" points="336,-514.5 336,-529.5 406,-529.5 406,-514.5 336,-514.5"/>
<text text-anchor="start" x="339" y="-520.1" font-family="Arial" font-size="8.00">INT PK</text>
<polygon fill="none" stroke="black" points="268,-499.5 268,-514.5 336,-514.5 336,-499.5 268,-499.5"/>
<text text-anchor="start" x="271" y="-505.1" font-family="Arial" font-size="8.00">plataforma</text>
<polygon fill="none" stroke="black" points="336,-499.5 336,-514.5 406,-514.5 406,-499.5 336,-499.5"/>
<text text-anchor="start" x="339" y="-505.1" font-family="Arial" font-size="8.00">VARCHAR</text>
<polygon fill="none" stroke="black" points="267,-499 267,-546 407,-546 407,-499 267,-499"/>
</g>
<!-- contribuicao_meioPagamento -->
<g id="node6" class="node">
<title>contribuicao_meioPagamento</title>
<polygon fill="#ffffff" stroke="transparent" points="148,-289 148,-366 274,-366 274,-289 148,-289"/>
<polygon fill="#4a90d9" stroke="transparent" points="149,-349.5 149,-364.5 273,-364.5 273,-349.5 149,-349.5"/>
<polygon fill="none" stroke="black" points="149,-349.5 149,-364.5 273,-364.5 273,-349.5 149,-349.5"/>
<text text-anchor="start" x="152" y="-356.1" font-family="Arial" font-weight="bold" font-size="8.00">contribuicao_meioPagamento</text>
<polygon fill="none" stroke="black" points="149,-334.5 149,-349.5 215,-349.5 215,-334.5 149,-334.5"/>
<text text-anchor="start" x="152" y="-340.1" font-family="Arial" font-size="8.00">id</text>
<polygon fill="none" stroke="black" points="215,-334.5 215,-349.5 273,-349.5 273,-334.5 215,-334.5"/>
<text text-anchor="start" x="218" y="-340.1" font-family="Arial" font-size="8.00">INT PK</text>
<polygon fill="none" stroke="black" points="149,-319.5 149,-334.5 215,-334.5 215,-319.5 149,-319.5"/>
<text text-anchor="start" x="152" y="-325.1" font-family="Arial" font-size="8.00">meio</text>
<polygon fill="none" stroke="black" points="215,-319.5 215,-334.5 273,-334.5 273,-319.5 215,-319.5"/>
<text text-anchor="start" x="218" y="-325.1" font-family="Arial" font-size="8.00">VARCHAR</text>
<polygon fill="none" stroke="black" points="149,-304.5 149,-319.5 215,-319.5 215,-304.5 149,-304.5"/>
<text text-anchor="start" x="152" y="-310.1" font-family="Arial" font-size="8.00">id_plataforma</text>
<polygon fill="none" stroke="black" points="215,-304.5 215,-319.5 273,-319.5 273,-304.5 215,-304.5"/>
<text text-anchor="start" x="218" y="-310.1" font-family="Arial" font-size="8.00">INT FK</text>
<polygon fill="none" stroke="black" points="149,-289.5 149,-304.5 215,-304.5 215,-289.5 149,-289.5"/>
<text text-anchor="start" x="152" y="-295.1" font-family="Arial" font-size="8.00">status</text>
<polygon fill="none" stroke="black" points="215,-289.5 215,-304.5 273,-304.5 273,-289.5 215,-289.5"/>
<text text-anchor="start" x="218" y="-295.1" font-family="Arial" font-size="8.00">BOOLEAN</text>
<polygon fill="none" stroke="black" points="148,-289 148,-366 274,-366 274,-289 148,-289"/>
</g>
<!-- contribuicao_gatewayPagamento&#45;&gt;contribuicao_meioPagamento -->
<g id="edge5" class="edge">
<title>contribuicao_gatewayPagamento&#45;&gt;contribuicao_meioPagamento</title>
<path fill="none" stroke="black" d="M298.17,-494.84C246.75,-457.04 235.2,-439.67 221.27,-377.31"/>
<polygon fill="black" stroke="black" points="223.63,-376.62 219.74,-370.31 218.85,-377.67 223.63,-376.62"/>
<text text-anchor="middle" x="237.4" y="-444.08" font-family="Arial" font-size="7.00">1:N</text>
</g>
<!-- recorrencia -->
<g id="node9" class="node">
<title>recorrencia</title>
<polygon fill="#ffffff" stroke="transparent" points="400,-259 400,-396 502,-396 502,-259 400,-259"/>
<polygon fill="#4a90d9" stroke="transparent" points="401,-379.5 401,-394.5 501,-394.5 501,-379.5 401,-379.5"/>
<polygon fill="none" stroke="black" points="401,-379.5 401,-394.5 501,-394.5 501,-379.5 401,-379.5"/>
<text text-anchor="start" x="428.5" y="-386.1" font-family="Arial" font-weight="bold" font-size="8.00">recorrencia</text>
<polygon fill="none" stroke="black" points="401,-364.5 401,-379.5 455,-379.5 455,-364.5 401,-364.5"/>
<text text-anchor="start" x="404" y="-370.1" font-family="Arial" font-size="8.00">id</text>
<polygon fill="none" stroke="black" points="455,-364.5 455,-379.5 501,-379.5 501,-364.5 455,-364.5"/>
<text text-anchor="start" x="458" y="-370.1" font-family="Arial" font-size="8.00">INT PK</text>
<polygon fill="none" stroke="black" points="401,-349.5 401,-364.5 455,-364.5 455,-349.5 401,-349.5"/>
<text text-anchor="start" x="404" y="-355.1" font-family="Arial" font-size="8.00">id_socio</text>
<polygon fill="none" stroke="black" points="455,-349.5 455,-364.5 501,-364.5 501,-349.5 455,-349.5"/>
<text text-anchor="start" x="458" y="-355.1" font-family="Arial" font-size="8.00">INT FK</text>
<polygon fill="none" stroke="black" points="401,-334.5 401,-349.5 455,-349.5 455,-334.5 401,-334.5"/>
<text text-anchor="start" x="404" y="-340.1" font-family="Arial" font-size="8.00">id_gateway</text>
<polygon fill="none" stroke="black" points="455,-334.5 455,-349.5 501,-349.5 501,-334.5 455,-334.5"/>
<text text-anchor="start" x="458" y="-340.1" font-family="Arial" font-size="8.00">INT FK</text>
<polygon fill="none" stroke="black" points="401,-319.5 401,-334.5 455,-334.5 455,-319.5 401,-319.5"/>
<text text-anchor="start" x="404" y="-325.1" font-family="Arial" font-size="8.00">codigo</text>
<polygon fill="none" stroke="black" points="455,-319.5 455,-334.5 501,-334.5 501,-319.5 455,-319.5"/>
<text text-anchor="start" x="458" y="-325.1" font-family="Arial" font-size="8.00">VARCHAR</text>
<polygon fill="none" stroke="black" points="401,-304.5 401,-319.5 455,-319.5 455,-304.5 401,-304.5"/>
<text text-anchor="start" x="404" y="-310.1" font-family="Arial" font-size="8.00">valor</text>
<polygon fill="none" stroke="black" points="455,-304.5 455,-319.5 501,-319.5 501,-304.5 455,-304.5"/>
<text text-anchor="start" x="458" y="-310.1" font-family="Arial" font-size="8.00">DECIMAL</text>
<polygon fill="none" stroke="black" points="401,-289.5 401,-304.5 455,-304.5 455,-289.5 401,-289.5"/>
<text text-anchor="start" x="404" y="-295.1" font-family="Arial" font-size="8.00">data_inicio</text>
<polygon fill="none" stroke="black" points="455,-289.5 455,-304.5 501,-304.5 501,-289.5 455,-289.5"/>
<text text-anchor="start" x="458" y="-295.1" font-family="Arial" font-size="8.00">DATE</text>
<polygon fill="none" stroke="black" points="401,-274.5 401,-289.5 455,-289.5 455,-274.5 401,-274.5"/>
<text text-anchor="start" x="404" y="-280.1" font-family="Arial" font-size="8.00">data_termino</text>
<polygon fill="none" stroke="black" points="455,-274.5 455,-289.5 501,-289.5 501,-274.5 455,-274.5"/>
<text text-anchor="start" x="458" y="-280.1" font-family="Arial" font-size="8.00">DATE</text>
<polygon fill="none" stroke="black" points="401,-259.5 401,-274.5 455,-274.5 455,-259.5 401,-259.5"/>
<text text-anchor="start" x="404" y="-265.1" font-family="Arial" font-size="8.00">status</text>
<polygon fill="none" stroke="black" points="455,-259.5 455,-274.5 501,-274.5 501,-259.5 455,-259.5"/>
<text text-anchor="start" x="458" y="-265.1" font-family="Arial" font-size="8.00">BOOLEAN</text>
<polygon fill="none" stroke="black" points="400,-259 400,-396 502,-396 502,-259 400,-259"/>
</g>
<!-- contribuicao_gatewayPagamento&#45;&gt;recorrencia -->
<g id="edge9" class="edge">
<title>contribuicao_gatewayPagamento&#45;&gt;recorrencia</title>
<path fill="none" stroke="black" d="M369.17,-494.78C392.55,-472.9 403.61,-454.86 422.09,-406.91"/>
<polygon fill="black" stroke="black" points="424.42,-407.68 424.63,-400.27 419.84,-405.94 424.42,-407.68"/>
<text text-anchor="middle" x="397.02" y="-453.12" font-family="Arial" font-size="7.00">1:N</text>
</g>
<!-- contribuicao_log -->
<g id="node10" class="node">
<title>contribuicao_log</title>
<polygon fill="#ffffff" stroke="transparent" points="324.5,-4 324.5,-201 455.5,-201 455.5,-4 324.5,-4"/>
<polygon fill="#4a90d9" stroke="transparent" points="326,-184.5 326,-199.5 455,-199.5 455,-184.5 326,-184.5"/>
<polygon fill="none" stroke="black" points="326,-184.5 326,-199.5 455,-199.5 455,-184.5 326,-184.5"/>
<text text-anchor="start" x="356.5" y="-191.1" font-family="Arial" font-weight="bold" font-size="8.00">contribuicao_log</text>
<polygon fill="none" stroke="black" points="326,-169.5 326,-184.5 405,-184.5 405,-169.5 326,-169.5"/>
<text text-anchor="start" x="329" y="-175.1" font-family="Arial" font-size="8.00">id</text>
<polygon fill="none" stroke="black" points="405,-169.5 405,-184.5 455,-184.5 455,-169.5 405,-169.5"/>
<text text-anchor="start" x="408" y="-175.1" font-family="Arial" font-size="8.00">INT PK</text>
<polygon fill="none" stroke="black" points="326,-154.5 326,-169.5 405,-169.5 405,-154.5 326,-154.5"/>
<text text-anchor="start" x="329" y="-160.1" font-family="Arial" font-size="8.00">id_socio</text>
<polygon fill="none" stroke="black" points="405,-154.5 405,-169.5 455,-169.5 455,-154.5 405,-154.5"/>
<text text-anchor="start" x="408" y="-160.1" font-family="Arial" font-size="8.00">INT FK</text>
<polygon fill="none" stroke="black" points="326,-139.5 326,-154.5 405,-154.5 405,-139.5 326,-139.5"/>
<text text-anchor="start" x="329" y="-145.1" font-family="Arial" font-size="8.00">id_gateway</text>
<polygon fill="none" stroke="black" points="405,-139.5 405,-154.5 455,-154.5 455,-139.5 405,-139.5"/>
<text text-anchor="start" x="408" y="-145.1" font-family="Arial" font-size="8.00">INT FK</text>
<polygon fill="none" stroke="black" points="326,-124.5 326,-139.5 405,-139.5 405,-124.5 326,-124.5"/>
<text text-anchor="start" x="329" y="-130.1" font-family="Arial" font-size="8.00">id_meio_pagamento</text>
<polygon fill="none" stroke="black" points="405,-124.5 405,-139.5 455,-139.5 455,-124.5 405,-124.5"/>
<text text-anchor="start" x="408" y="-130.1" font-family="Arial" font-size="8.00">INT FK</text>
<polygon fill="none" stroke="black" points="326,-109.5 326,-124.5 405,-124.5 405,-109.5 326,-109.5"/>
<text text-anchor="start" x="329" y="-115.1" font-family="Arial" font-size="8.00">id_recorrencia</text>
<polygon fill="none" stroke="black" points="405,-109.5 405,-124.5 455,-124.5 455,-109.5 405,-109.5"/>
<text text-anchor="start" x="408" y="-115.1" font-family="Arial" font-size="8.00">INT FK</text>
<polygon fill="none" stroke="black" points="326,-94.5 326,-109.5 405,-109.5 405,-94.5 326,-94.5"/>
<text text-anchor="start" x="329" y="-100.1" font-family="Arial" font-size="8.00">codigo</text>
<polygon fill="none" stroke="black" points="405,-94.5 405,-109.5 455,-109.5 455,-94.5 405,-94.5"/>
<text text-anchor="start" x="408" y="-100.1" font-family="Arial" font-size="8.00">VARCHAR</text>
<polygon fill="none" stroke="black" points="326,-79.5 326,-94.5 405,-94.5 405,-79.5 326,-79.5"/>
<text text-anchor="start" x="329" y="-85.1" font-family="Arial" font-size="8.00">valor</text>
<polygon fill="none" stroke="black" points="405,-79.5 405,-94.5 455,-94.5 455,-79.5 405,-79.5"/>
<text text-anchor="start" x="408" y="-85.1" font-family="Arial" font-size="8.00">DECIMAL</text>
<polygon fill="none" stroke="black" points="326,-64.5 326,-79.5 405,-79.5 405,-64.5 326,-64.5"/>
<text text-anchor="start" x="329" y="-70.1" font-family="Arial" font-size="8.00">data_geracao</text>
<polygon fill="none" stroke="black" points="405,-64.5 405,-79.5 455,-79.5 455,-64.5 405,-64.5"/>
<text text-anchor="start" x="408" y="-70.1" font-family="Arial" font-size="8.00">DATE</text>
<polygon fill="none" stroke="black" points="326,-49.5 326,-64.5 405,-64.5 405,-49.5 326,-49.5"/>
<text text-anchor="start" x="329" y="-55.1" font-family="Arial" font-size="8.00">data_vencimento</text>
<polygon fill="none" stroke="black" points="405,-49.5 405,-64.5 455,-64.5 455,-49.5 405,-49.5"/>
<text text-anchor="start" x="408" y="-55.1" font-family="Arial" font-size="8.00">DATE</text>
<polygon fill="none" stroke="black" points="326,-34.5 326,-49.5 405,-49.5 405,-34.5 326,-34.5"/>
<text text-anchor="start" x="329" y="-40.1" font-family="Arial" font-size="8.00">data_pagamento</text>
<polygon fill="none" stroke="black" points="405,-34.5 405,-49.5 455,-49.5 455,-34.5 405,-34.5"/>
<text text-anchor="start" x="408" y="-40.1" font-family="Arial" font-size="8.00">DATE</text>
<polygon fill="none" stroke="black" points="326,-19.5 326,-34.5 405,-34.5 405,-19.5 326,-19.5"/>
<text text-anchor="start" x="329" y="-25.1" font-family="Arial" font-size="8.00">status_pagamento</text>
<polygon fill="none" stroke="black" points="405,-19.5 405,-34.5 455,-34.5 455,-19.5 405,-19.5"/>
<text text-anchor="start" x="408" y="-25.1" font-family="Arial" font-size="8.00">BOOLEAN</text>
<polygon fill="none" stroke="black" points="326,-4.5 326,-19.5 405,-19.5 405,-4.5 326,-4.5"/>
<text text-anchor="start" x="329" y="-10.1" font-family="Arial" font-size="8.00">url</text>
<polygon fill="none" stroke="black" points="405,-4.5 405,-19.5 455,-19.5 455,-4.5 405,-4.5"/>
<text text-anchor="start" x="408" y="-10.1" font-family="Arial" font-size="8.00">LONGTEXT</text>
<polygon fill="none" stroke="black" points="324.5,-4 324.5,-201 455.5,-201 455.5,-4 324.5,-4"/>
</g>
<!-- contribuicao_gatewayPagamento&#45;&gt;contribuicao_log -->
<g id="edge11" class="edge">
<title>contribuicao_gatewayPagamento&#45;&gt;contribuicao_log</title>
<path fill="none" stroke="black" d="M335.7,-494.68C328.03,-329.93 326.16,-268.97 342.69,-212.01"/>
<polygon fill="black" stroke="black" points="345.11,-212.48 344.8,-205.07 340.42,-211.06 345.11,-212.48"/>
<text text-anchor="middle" x="324.12" y="-315.32" font-family="Arial" font-size="7.00">1:N</text>
</g>
<!-- socio_status -->
<g id="node2" class="node">
<title>socio_status</title>
<polygon fill="#ffffff" stroke="transparent" points="361,-649 361,-696 465,-696 465,-649 361,-649"/>
<polygon fill="#4a90d9" stroke="transparent" points="362,-679.5 362,-694.5 464,-694.5 464,-679.5 362,-679.5"/>
<polygon fill="none" stroke="black" points="362,-679.5 362,-694.5 464,-694.5 464,-679.5 362,-679.5"/>
<text text-anchor="start" x="387" y="-686.1" font-family="Arial" font-weight="bold" font-size="8.00">socio_status</text>
<polygon fill="none" stroke="black" points="362,-664.5 362,-679.5 418,-679.5 418,-664.5 362,-664.5"/>
<text text-anchor="start" x="365" y="-670.1" font-family="Arial" font-size="8.00">id_sociostatus</text>
<polygon fill="none" stroke="black" points="418,-664.5 418,-679.5 464,-679.5 464,-664.5 418,-664.5"/>
<text text-anchor="start" x="421" y="-670.1" font-family="Arial" font-size="8.00">INT PK</text>
<polygon fill="none" stroke="black" points="362,-649.5 362,-664.5 418,-664.5 418,-649.5 362,-649.5"/>
<text text-anchor="start" x="365" y="-655.1" font-family="Arial" font-size="8.00">status</text>
<polygon fill="none" stroke="black" points="418,-649.5 418,-664.5 464,-664.5 464,-649.5 418,-649.5"/>
<text text-anchor="start" x="421" y="-655.1" font-family="Arial" font-size="8.00">VARCHAR</text>
<polygon fill="none" stroke="black" points="361,-649 361,-696 465,-696 465,-649 361,-649"/>
</g>
<!-- socio -->
<g id="node5" class="node">
<title>socio</title>
<polygon fill="#ffffff" stroke="transparent" points="509.5,-454 509.5,-591 620.5,-591 620.5,-454 509.5,-454"/>
<polygon fill="#4a90d9" stroke="transparent" points="511,-574.5 511,-589.5 620,-589.5 620,-574.5 511,-574.5"/>
<polygon fill="none" stroke="black" points="511,-574.5 511,-589.5 620,-589.5 620,-574.5 511,-574.5"/>
<text text-anchor="start" x="554.5" y="-581.1" font-family="Arial" font-weight="bold" font-size="8.00">socio</text>
<polygon fill="none" stroke="black" points="511,-559.5 511,-574.5 574,-574.5 574,-559.5 511,-559.5"/>
<text text-anchor="start" x="514" y="-565.1" font-family="Arial" font-size="8.00">id_socio</text>
<polygon fill="none" stroke="black" points="574,-559.5 574,-574.5 620,-574.5 620,-559.5 574,-559.5"/>
<text text-anchor="start" x="577" y="-565.1" font-family="Arial" font-size="8.00">INT PK</text>
<polygon fill="none" stroke="black" points="511,-544.5 511,-559.5 574,-559.5 574,-544.5 511,-544.5"/>
<text text-anchor="start" x="514" y="-550.1" font-family="Arial" font-size="8.00">id_pessoa</text>
<polygon fill="none" stroke="black" points="574,-544.5 574,-559.5 620,-559.5 620,-544.5 574,-544.5"/>
<text text-anchor="start" x="577" y="-550.1" font-family="Arial" font-size="8.00">INT FK</text>
<polygon fill="none" stroke="black" points="511,-529.5 511,-544.5 574,-544.5 574,-529.5 511,-529.5"/>
<text text-anchor="start" x="514" y="-535.1" font-family="Arial" font-size="8.00">id_sociostatus</text>
<polygon fill="none" stroke="black" points="574,-529.5 574,-544.5 620,-544.5 620,-529.5 574,-529.5"/>
<text text-anchor="start" x="577" y="-535.1" font-family="Arial" font-size="8.00">INT FK</text>
<polygon fill="none" stroke="black" points="511,-514.5 511,-529.5 574,-529.5 574,-514.5 511,-514.5"/>
<text text-anchor="start" x="514" y="-520.1" font-family="Arial" font-size="8.00">id_sociotipo</text>
<polygon fill="none" stroke="black" points="574,-514.5 574,-529.5 620,-529.5 620,-514.5 574,-514.5"/>
<text text-anchor="start" x="577" y="-520.1" font-family="Arial" font-size="8.00">INT FK</text>
<polygon fill="none" stroke="black" points="511,-499.5 511,-514.5 574,-514.5 574,-499.5 511,-499.5"/>
<text text-anchor="start" x="514" y="-505.1" font-family="Arial" font-size="8.00">id_sociotag</text>
<polygon fill="none" stroke="black" points="574,-499.5 574,-514.5 620,-514.5 620,-499.5 574,-499.5"/>
<text text-anchor="start" x="577" y="-505.1" font-family="Arial" font-size="8.00">INT FK</text>
<polygon fill="none" stroke="black" points="511,-484.5 511,-499.5 574,-499.5 574,-484.5 511,-484.5"/>
<text text-anchor="start" x="514" y="-490.1" font-family="Arial" font-size="8.00">email</text>
<polygon fill="none" stroke="black" points="574,-484.5 574,-499.5 620,-499.5 620,-484.5 574,-484.5"/>
<text text-anchor="start" x="577" y="-490.1" font-family="Arial" font-size="8.00">VARCHAR</text>
<polygon fill="none" stroke="black" points="511,-469.5 511,-484.5 574,-484.5 574,-469.5 511,-469.5"/>
<text text-anchor="start" x="514" y="-475.1" font-family="Arial" font-size="8.00">valor_periodo</text>
<polygon fill="none" stroke="black" points="574,-469.5 574,-484.5 620,-484.5 620,-469.5 574,-469.5"/>
<text text-anchor="start" x="577" y="-475.1" font-family="Arial" font-size="8.00">DECIMAL</text>
<polygon fill="none" stroke="black" points="511,-454.5 511,-469.5 574,-469.5 574,-454.5 511,-454.5"/>
<text text-anchor="start" x="514" y="-460.1" font-family="Arial" font-size="8.00">data_referencia</text>
<polygon fill="none" stroke="black" points="574,-454.5 574,-469.5 620,-469.5 620,-454.5 574,-454.5"/>
<text text-anchor="start" x="577" y="-460.1" font-family="Arial" font-size="8.00">DATE</text>
<polygon fill="none" stroke="black" points="509.5,-454 509.5,-591 620.5,-591 620.5,-454 509.5,-454"/>
</g>
<!-- socio_status&#45;&gt;socio -->
<g id="edge2" class="edge">
<title>socio_status&#45;&gt;socio</title>
<path fill="none" stroke="black" d="M473.24,-647.18C494.14,-636.16 507.13,-624 521.94,-601.09"/>
<polygon fill="black" stroke="black" points="524.1,-602.26 525.76,-595.03 519.95,-599.65 524.1,-602.26"/>
<text text-anchor="middle" x="497.44" y="-627.47" font-family="Arial" font-size="7.00">1:N</text>
</g>
<!-- socio_tipo -->
<g id="node3" class="node">
<title>socio_tipo</title>
<polygon fill="#ffffff" stroke="transparent" points="517,-649 517,-696 613,-696 613,-649 517,-649"/>
<polygon fill="#4a90d9" stroke="transparent" points="518,-679.5 518,-694.5 612,-694.5 612,-679.5 518,-679.5"/>
<polygon fill="none" stroke="black" points="518,-679.5 518,-694.5 612,-694.5 612,-679.5 518,-679.5"/>
<text text-anchor="start" x="543.5" y="-686.1" font-family="Arial" font-weight="bold" font-size="8.00">socio_tipo</text>
<polygon fill="none" stroke="black" points="518,-664.5 518,-679.5 566,-679.5 566,-664.5 518,-664.5"/>
<text text-anchor="start" x="521" y="-670.1" font-family="Arial" font-size="8.00">id_sociotipo</text>
<polygon fill="none" stroke="black" points="566,-664.5 566,-679.5 612,-679.5 612,-664.5 566,-664.5"/>
<text text-anchor="start" x="569" y="-670.1" font-family="Arial" font-size="8.00">INT PK</text>
<polygon fill="none" stroke="black" points="518,-649.5 518,-664.5 566,-664.5 566,-649.5 518,-649.5"/>
<text text-anchor="start" x="521" y="-655.1" font-family="Arial" font-size="8.00">tipo</text>
<polygon fill="none" stroke="black" points="566,-649.5 566,-664.5 612,-664.5 612,-649.5 566,-649.5"/>
<text text-anchor="start" x="569" y="-655.1" font-family="Arial" font-size="8.00">VARCHAR</text>
<polygon fill="none" stroke="black" points="517,-649 517,-696 613,-696 613,-649 517,-649"/>
</g>
<!-- socio_tipo&#45;&gt;socio -->
<g id="edge3" class="edge">
<title>socio_tipo&#45;&gt;socio</title>
<path fill="none" stroke="black" d="M574.1,-644.88C577.97,-631.01 579.17,-619.85 577.7,-602.63"/>
<polygon fill="black" stroke="black" points="580.11,-602.15 576.97,-595.44 575.24,-602.65 580.11,-602.15"/>
<text text-anchor="middle" x="572.2" y="-622.96" font-family="Arial" font-size="7.00">1:N</text>
</g>
<!-- socio_tag -->
<g id="node4" class="node">
<title>socio_tag</title>
<polygon fill="#ffffff" stroke="transparent" points="665,-649 665,-696 759,-696 759,-649 665,-649"/>
<polygon fill="#4a90d9" stroke="transparent" points="666,-679.5 666,-694.5 758,-694.5 758,-679.5 666,-679.5"/>
<polygon fill="none" stroke="black" points="666,-679.5 666,-694.5 758,-694.5 758,-679.5 666,-679.5"/>
<text text-anchor="start" x="692" y="-686.1" font-family="Arial" font-weight="bold" font-size="8.00">socio_tag</text>
<polygon fill="none" stroke="black" points="666,-664.5 666,-679.5 712,-679.5 712,-664.5 666,-664.5"/>
<text text-anchor="start" x="669" y="-670.1" font-family="Arial" font-size="8.00">id_sociotag</text>
<polygon fill="none" stroke="black" points="712,-664.5 712,-679.5 758,-679.5 758,-664.5 712,-664.5"/>
<text text-anchor="start" x="715" y="-670.1" font-family="Arial" font-size="8.00">INT PK</text>
<polygon fill="none" stroke="black" points="666,-649.5 666,-664.5 712,-664.5 712,-649.5 666,-649.5"/>
<text text-anchor="start" x="669" y="-655.1" font-family="Arial" font-size="8.00">tag</text>
<polygon fill="none" stroke="black" points="712,-649.5 712,-664.5 758,-664.5 758,-649.5 712,-649.5"/>
<text text-anchor="start" x="715" y="-655.1" font-family="Arial" font-size="8.00">VARCHAR</text>
<polygon fill="none" stroke="black" points="665,-649 665,-696 759,-696 759,-649 665,-649"/>
</g>
<!-- socio_tag&#45;&gt;socio -->
<g id="edge4" class="edge">
<title>socio_tag&#45;&gt;socio</title>
<path fill="none" stroke="black" d="M685.68,-644.8C671.55,-630.04 658.92,-617.12 633.77,-591.73"/>
<polygon fill="black" stroke="black" points="635.23,-589.73 628.56,-586.48 631.75,-593.18 635.23,-589.73"/>
<text text-anchor="middle" x="651.73" y="-618.4" font-family="Arial" font-size="7.00">1:N</text>
</g>
<!-- socio&#45;&gt;recorrencia -->
<g id="edge8" class="edge">
<title>socio&#45;&gt;recorrencia</title>
<path fill="none" stroke="black" d="M541.08,-449.76C534.49,-437.32 525.58,-423.95 512.23,-405.99"/>
<polygon fill="black" stroke="black" points="514.1,-404.4 507.95,-400.27 510.18,-407.34 514.1,-404.4"/>
<text text-anchor="middle" x="519.73" y="-427.2" font-family="Arial" font-size="7.00">1:N</text>
</g>
<!-- socio&#45;&gt;contribuicao_log -->
<g id="edge10" class="edge">
<title>socio&#45;&gt;contribuicao_log</title>
<path fill="none" stroke="black" d="M563.88,-449.87C560.73,-312.51 549.42,-273.13 468.65,-184.61"/>
<polygon fill="black" stroke="black" points="470.28,-182.76 463.74,-179.26 466.67,-186.07 470.28,-182.76"/>
<text text-anchor="middle" x="539.37" y="-301.3" font-family="Arial" font-size="7.00">1:N</text>
</g>
<!-- pessoa -->
<g id="node11" class="node">
<title>pessoa</title>
<text text-anchor="middle" x="647" y="-325.6" font-family="Arial" font-size="8.00">pessoa</text>
</g>
<!-- socio&#45;&gt;pessoa -->
<g id="edge1" class="edge">
<title>socio&#45;&gt;pessoa</title>
<path fill="none" stroke="black" d="M628.5,-449.78C643.82,-424.83 646.07,-401.58 646.75,-352.68"/>
<polygon fill="black" stroke="black" points="649.2,-352.64 646.84,-345.61 644.3,-352.58 649.2,-352.64"/>
<text text-anchor="middle" x="639.67" y="-401.1" font-family="Arial" font-size="7.00">1:1</text>
</g>
<!-- contribuicao_conjuntoRegras -->
<g id="node8" class="node">
<title>contribuicao_conjuntoRegras</title>
<polygon fill="#ffffff" stroke="transparent" points="93.5,-56.5 93.5,-148.5 220.5,-148.5 220.5,-56.5 93.5,-56.5"/>
<polygon fill="#4a90d9" stroke="transparent" points="95,-132.5 95,-147.5 220,-147.5 220,-132.5 95,-132.5"/>
<polygon fill="none" stroke="black" points="95,-132.5 95,-147.5 220,-147.5 220,-132.5 95,-132.5"/>
<text text-anchor="start" x="98" y="-139.1" font-family="Arial" font-weight="bold" font-size="8.00">contribuicao_conjuntoRegras</text>
<polygon fill="none" stroke="black" points="95,-117.5 95,-132.5 173,-132.5 173,-117.5 95,-117.5"/>
<text text-anchor="start" x="98" y="-123.1" font-family="Arial" font-size="8.00">id</text>
<polygon fill="none" stroke="black" points="173,-117.5 173,-132.5 220,-132.5 220,-117.5 173,-117.5"/>
<text text-anchor="start" x="176" y="-123.1" font-family="Arial" font-size="8.00">INT PK</text>
<polygon fill="none" stroke="black" points="95,-102.5 95,-117.5 173,-117.5 173,-102.5 95,-102.5"/>
<text text-anchor="start" x="98" y="-108.1" font-family="Arial" font-size="8.00">id_meioPagamento</text>
<polygon fill="none" stroke="black" points="173,-102.5 173,-117.5 220,-117.5 220,-102.5 173,-102.5"/>
<text text-anchor="start" x="176" y="-108.1" font-family="Arial" font-size="8.00">INT FK</text>
<polygon fill="none" stroke="black" points="95,-87.5 95,-102.5 173,-102.5 173,-87.5 95,-87.5"/>
<text text-anchor="start" x="98" y="-93.1" font-family="Arial" font-size="8.00">id_regra</text>
<polygon fill="none" stroke="black" points="173,-87.5 173,-102.5 220,-102.5 220,-87.5 173,-87.5"/>
<text text-anchor="start" x="176" y="-93.1" font-family="Arial" font-size="8.00">INT FK</text>
<polygon fill="none" stroke="black" points="95,-72.5 95,-87.5 173,-87.5 173,-72.5 95,-72.5"/>
<text text-anchor="start" x="98" y="-78.1" font-family="Arial" font-size="8.00">valor</text>
<polygon fill="none" stroke="black" points="173,-72.5 173,-87.5 220,-87.5 220,-72.5 173,-72.5"/>
<text text-anchor="start" x="176" y="-78.1" font-family="Arial" font-size="8.00">DECIMAL</text>
<polygon fill="none" stroke="black" points="95,-57.5 95,-72.5 173,-72.5 173,-57.5 95,-57.5"/>
<text text-anchor="start" x="98" y="-63.1" font-family="Arial" font-size="8.00">status</text>
<polygon fill="none" stroke="black" points="173,-57.5 173,-72.5 220,-72.5 220,-57.5 173,-57.5"/>
<text text-anchor="start" x="176" y="-63.1" font-family="Arial" font-size="8.00">BOOLEAN</text>
<polygon fill="none" stroke="black" points="93.5,-56.5 93.5,-148.5 220.5,-148.5 220.5,-56.5 93.5,-56.5"/>
</g>
<!-- contribuicao_meioPagamento&#45;&gt;contribuicao_conjuntoRegras -->
<g id="edge7" class="edge">
<title>contribuicao_meioPagamento&#45;&gt;contribuicao_conjuntoRegras</title>
<path fill="none" stroke="black" d="M190.94,-284.81C160.17,-218.73 150.92,-193.61 151.33,-160.03"/>
<polygon fill="black" stroke="black" points="153.79,-159.79 151.56,-152.71 148.89,-159.63 153.79,-159.79"/>
<text text-anchor="middle" x="153.44" y="-212.62" font-family="Arial" font-size="7.00">1:N</text>
</g>
<!-- contribuicao_meioPagamento&#45;&gt;contribuicao_log -->
<g id="edge12" class="edge">
<title>contribuicao_meioPagamento&#45;&gt;contribuicao_log</title>
<path fill="none" stroke="black" d="M226.72,-284.99C256.81,-204.64 271.4,-175.78 310.53,-148.08"/>
<polygon fill="black" stroke="black" points="312.1,-149.97 316.48,-143.99 309.32,-145.93 312.1,-149.97"/>
<text text-anchor="middle" x="259.25" y="-199.17" font-family="Arial" font-size="7.00">1:N</text>
</g>
<!-- contribuicao_regras -->
<g id="node7" class="node">
<title>contribuicao_regras</title>
<polygon fill="#ffffff" stroke="transparent" points="8,-304 8,-351 96,-351 96,-304 8,-304"/>
<polygon fill="#4a90d9" stroke="transparent" points="9,-334.5 9,-349.5 95,-349.5 95,-334.5 9,-334.5"/>
<polygon fill="none" stroke="black" points="9,-334.5 9,-349.5 95,-349.5 95,-334.5 9,-334.5"/>
<text text-anchor="start" x="12" y="-341.1" font-family="Arial" font-weight="bold" font-size="8.00">contribuicao_regras</text>
<polygon fill="none" stroke="black" points="9,-319.5 9,-334.5 42,-334.5 42,-319.5 9,-319.5"/>
<text text-anchor="start" x="12" y="-325.1" font-family="Arial" font-size="8.00">id</text>
<polygon fill="none" stroke="black" points="42,-319.5 42,-334.5 95,-334.5 95,-319.5 42,-319.5"/>
<text text-anchor="start" x="45" y="-325.1" font-family="Arial" font-size="8.00">INT PK</text>
<polygon fill="none" stroke="black" points="9,-304.5 9,-319.5 42,-319.5 42,-304.5 9,-304.5"/>
<text text-anchor="start" x="12" y="-310.1" font-family="Arial" font-size="8.00">regra</text>
<polygon fill="none" stroke="black" points="42,-304.5 42,-319.5 95,-319.5 95,-304.5 42,-304.5"/>
<text text-anchor="start" x="45" y="-310.1" font-family="Arial" font-size="8.00">VARCHAR</text>
<polygon fill="none" stroke="black" points="8,-304 8,-351 96,-351 96,-304 8,-304"/>
</g>
<!-- contribuicao_regras&#45;&gt;contribuicao_conjuntoRegras -->
<g id="edge6" class="edge">
<title>contribuicao_regras&#45;&gt;contribuicao_conjuntoRegras</title>
<path fill="none" stroke="black" d="M53.65,-299.76C58.49,-222.44 63.32,-197.78 99.68,-158.21"/>
<polygon fill="black" stroke="black" points="101.77,-159.57 104.78,-152.79 98.2,-156.22 101.77,-159.57"/>
<text text-anchor="middle" x="58.85" y="-217.2" font-family="Arial" font-size="7.00">1:N</text>
</g>
<!-- recorrencia&#45;&gt;contribuicao_log -->
<g id="edge13" class="edge">
<title>recorrencia&#45;&gt;contribuicao_log</title>
<path fill="none" stroke="black" d="M442.41,-254.99C440.28,-238.19 438.33,-224.25 436.31,-212.3"/>
<polygon fill="black" stroke="black" points="438.67,-211.58 435.04,-205.11 433.84,-212.43 438.67,-211.58"/>
<text text-anchor="middle" x="433.04" y="-232.25" font-family="Arial" font-size="7.00">1:N</text>
</g>
</g>
</svg>
