<?xml version="1.0" encoding="UTF-8" standalone="no"?>
<!DOCTYPE svg PUBLIC "-//W3C//DTD SVG 1.1//EN"
 "http://www.w3.org/Graphics/SVG/1.1/DTD/svg11.dtd">
<!-- Generated by graphviz version 2.43.0 (0)
 -->
<!-- Title: MER_Saude Pages: 1 -->
<svg width="1328pt" height="719pt"
 viewBox="0.00 0.00 1328.00 719.00" xmlns="http://www.w3.org/2000/svg" xmlns:xlink="http://www.w3.org/1999/xlink">
<g id="graph0" class="graph" transform="scale(1 1) rotate(0) translate(4 715)">
<title>MER_Saude</title>
<polygon fill="white" stroke="transparent" points="-4,4 -4,-715 1324,-715 1324,4 -4,4"/>
<!-- saude_alergia -->
<g id="node1" class="node">
<title>saude_alergia</title>
<polygon fill="#ffffff" stroke="transparent" points="24.5,-566.5 24.5,-613.5 113.5,-613.5 113.5,-566.5 24.5,-566.5"/>
<polygon fill="#4a90d9" stroke="transparent" points="26,-597 26,-612 113,-612 113,-597 26,-597"/>
<polygon fill="none" stroke="black" points="26,-597 26,-612 113,-612 113,-597 26,-597"/>
<text text-anchor="start" x="42" y="-603.6" font-family="Arial" font-weight="bold" font-size="8.00">saude_alergia</text>
<polygon fill="none" stroke="black" points="26,-582 26,-597 67,-597 67,-582 26,-582"/>
<text text-anchor="start" x="29" y="-587.6" font-family="Arial" font-size="8.00">id_alergia</text>
<polygon fill="none" stroke="black" points="67,-582 67,-597 113,-597 113,-582 67,-582"/>
<text text-anchor="start" x="70" y="-587.6" font-family="Arial" font-size="8.00">INT PK</text>
<polygon fill="none" stroke="black" points="26,-567 26,-582 67,-582 67,-567 26,-567"/>
<text text-anchor="start" x="29" y="-572.6" font-family="Arial" font-size="8.00">nome</text>
<polygon fill="none" stroke="black" points="67,-567 67,-582 113,-582 113,-567 67,-567"/>
<text text-anchor="start" x="70" y="-572.6" font-family="Arial" font-size="8.00">VARCHAR</text>
<polygon fill="none" stroke="black" points="24.5,-566.5 24.5,-613.5 113.5,-613.5 113.5,-566.5 24.5,-566.5"/>
</g>
<!-- saude_fichamedica_alergia -->
<g id="node3" class="node">
<title>saude_fichamedica_alergia</title>
<polygon fill="#ffffff" stroke="transparent" points="8,-386.5 8,-448.5 130,-448.5 130,-386.5 8,-386.5"/>
<polygon fill="#4a90d9" stroke="transparent" points="9,-432.5 9,-447.5 129,-447.5 129,-432.5 9,-432.5"/>
<polygon fill="none" stroke="black" points="9,-432.5 9,-447.5 129,-447.5 129,-432.5 9,-432.5"/>
<text text-anchor="start" x="15.5" y="-439.1" font-family="Arial" font-weight="bold" font-size="8.00">saude_fichamedica_alergia</text>
<polygon fill="none" stroke="black" points="9,-417.5 9,-432.5 97,-432.5 97,-417.5 9,-417.5"/>
<text text-anchor="start" x="12" y="-423.1" font-family="Arial" font-size="8.00">id_fichamedica_alergia</text>
<polygon fill="none" stroke="black" points="97,-417.5 97,-432.5 129,-432.5 129,-417.5 97,-417.5"/>
<text text-anchor="start" x="100" y="-423.1" font-family="Arial" font-size="8.00">INT PK</text>
<polygon fill="none" stroke="black" points="9,-402.5 9,-417.5 97,-417.5 97,-402.5 9,-402.5"/>
<text text-anchor="start" x="12" y="-408.1" font-family="Arial" font-size="8.00">id_fichamedica</text>
<polygon fill="none" stroke="black" points="97,-402.5 97,-417.5 129,-417.5 129,-402.5 97,-402.5"/>
<text text-anchor="start" x="100" y="-408.1" font-family="Arial" font-size="8.00">INT FK</text>
<polygon fill="none" stroke="black" points="9,-387.5 9,-402.5 97,-402.5 97,-387.5 9,-387.5"/>
<text text-anchor="start" x="12" y="-393.1" font-family="Arial" font-size="8.00">id_alergia</text>
<polygon fill="none" stroke="black" points="97,-387.5 97,-402.5 129,-402.5 129,-387.5 97,-387.5"/>
<text text-anchor="start" x="100" y="-393.1" font-family="Arial" font-size="8.00">INT FK</text>
<polygon fill="none" stroke="black" points="8,-386.5 8,-448.5 130,-448.5 130,-386.5 8,-386.5"/>
</g>
<!-- saude_alergia&#45;&gt;saude_fichamedica_alergia -->
<g id="edge2" class="edge">
<title>saude_alergia&#45;&gt;saude_fichamedica_alergia</title>
<path fill="none" stroke="black" d="M57.29,-562.34C40.41,-520.89 39.49,-505.5 54.54,-459.31"/>
<polygon fill="black" stroke="black" points="56.9,-459.99 56.77,-452.58 52.24,-458.45 56.9,-459.99"/>
<text text-anchor="middle" x="37.95" y="-509.76" font-family="Arial" font-size="7.00">1:N</text>
</g>
<!-- saude_fichamedica -->
<g id="node2" class="node">
<title>saude_fichamedica</title>
<polygon fill="#ffffff" stroke="transparent" points="558.5,-559 558.5,-621 651.5,-621 651.5,-559 558.5,-559"/>
<polygon fill="#4a90d9" stroke="transparent" points="560,-605 560,-620 651,-620 651,-605 560,-605"/>
<polygon fill="none" stroke="black" points="560,-605 560,-620 651,-620 651,-605 560,-605"/>
<text text-anchor="start" x="567.5" y="-611.6" font-family="Arial" font-weight="bold" font-size="8.00">saude_fichamedica</text>
<polygon fill="none" stroke="black" points="560,-590 560,-605 619,-605 619,-590 560,-590"/>
<text text-anchor="start" x="563" y="-595.6" font-family="Arial" font-size="8.00">id_fichamedica</text>
<polygon fill="none" stroke="black" points="619,-590 619,-605 651,-605 651,-590 619,-590"/>
<text text-anchor="start" x="622" y="-595.6" font-family="Arial" font-size="8.00">INT PK</text>
<polygon fill="none" stroke="black" points="560,-575 560,-590 619,-590 619,-575 560,-575"/>
<text text-anchor="start" x="563" y="-580.6" font-family="Arial" font-size="8.00">id_pessoa</text>
<polygon fill="none" stroke="black" points="619,-575 619,-590 651,-590 651,-575 619,-575"/>
<text text-anchor="start" x="622" y="-580.6" font-family="Arial" font-size="8.00">INT FK</text>
<polygon fill="none" stroke="black" points="560,-560 560,-575 619,-575 619,-560 560,-560"/>
<text text-anchor="start" x="563" y="-565.6" font-family="Arial" font-size="8.00">prontuario</text>
<polygon fill="none" stroke="black" points="619,-560 619,-575 651,-575 651,-560 619,-560"/>
<text text-anchor="start" x="622" y="-565.6" font-family="Arial" font-size="8.00">TEXT</text>
<polygon fill="none" stroke="black" points="558.5,-559 558.5,-621 651.5,-621 651.5,-559 558.5,-559"/>
</g>
<!-- saude_fichamedica&#45;&gt;saude_fichamedica_alergia -->
<g id="edge3" class="edge">
<title>saude_fichamedica&#45;&gt;saude_fichamedica_alergia</title>
<path fill="none" stroke="black" d="M550.4,-584.19C271.34,-554.34 232.24,-545.74 118.92,-457.29"/>
<polygon fill="black" stroke="black" points="120.14,-455.13 113.11,-452.74 117.11,-458.99 120.14,-455.13"/>
<text text-anchor="middle" x="266.5" y="-545.12" font-family="Arial" font-size="7.00">1:N</text>
</g>
<!-- saude_fichamedica_prontuario_historico -->
<g id="node4" class="node">
<title>saude_fichamedica_prontuario_historico</title>
<polygon fill="#ffffff" stroke="transparent" points="519.5,-379 519.5,-456 690.5,-456 690.5,-379 519.5,-379"/>
<polygon fill="#4a90d9" stroke="transparent" points="521,-439.5 521,-454.5 690,-454.5 690,-439.5 521,-439.5"/>
<polygon fill="none" stroke="black" points="521,-439.5 521,-454.5 690,-454.5 690,-439.5 521,-439.5"/>
<text text-anchor="start" x="524" y="-446.1" font-family="Arial" font-weight="bold" font-size="8.00">saude_fichamedica_prontuario_historico</text>
<polygon fill="none" stroke="black" points="521,-424.5 521,-439.5 626,-439.5 626,-424.5 521,-424.5"/>
<text text-anchor="start" x="524" y="-430.1" font-family="Arial" font-size="8.00">id_prontuario_historico</text>
<polygon fill="none" stroke="black" points="626,-424.5 626,-439.5 690,-439.5 690,-424.5 626,-424.5"/>
<text text-anchor="start" x="629" y="-430.1" font-family="Arial" font-size="8.00">INT PK</text>
<polygon fill="none" stroke="black" points="521,-409.5 521,-424.5 626,-424.5 626,-409.5 521,-409.5"/>
<text text-anchor="start" x="524" y="-415.1" font-family="Arial" font-size="8.00">id_fichamedica</text>
<polygon fill="none" stroke="black" points="626,-409.5 626,-424.5 690,-424.5 690,-409.5 626,-409.5"/>
<text text-anchor="start" x="629" y="-415.1" font-family="Arial" font-size="8.00">INT FK</text>
<polygon fill="none" stroke="black" points="521,-394.5 521,-409.5 626,-409.5 626,-394.5 521,-394.5"/>
<text text-anchor="start" x="524" y="-400.1" font-family="Arial" font-size="8.00">prontuario</text>
<polygon fill="none" stroke="black" points="626,-394.5 626,-409.5 690,-409.5 690,-394.5 626,-394.5"/>
<text text-anchor="start" x="629" y="-400.1" font-family="Arial" font-size="8.00">TEXT</text>
<polygon fill="none" stroke="black" points="521,-379.5 521,-394.5 626,-394.5 626,-379.5 521,-379.5"/>
<text text-anchor="start" x="524" y="-385.1" font-family="Arial" font-size="8.00">data</text>
<polygon fill="none" stroke="black" points="626,-379.5 626,-394.5 690,-394.5 690,-379.5 626,-379.5"/>
<text text-anchor="start" x="629" y="-385.1" font-family="Arial" font-size="8.00">DATETIME</text>
<polygon fill="none" stroke="black" points="519.5,-379 519.5,-456 690.5,-456 690.5,-379 519.5,-379"/>
</g>
<!-- saude_fichamedica&#45;&gt;saude_fichamedica_prontuario_historico -->
<g id="edge4" class="edge">
<title>saude_fichamedica&#45;&gt;saude_fichamedica_prontuario_historico</title>
<path fill="none" stroke="black" d="M597.91,-554.78C594.79,-533.69 595.49,-514.96 600.01,-467.58"/>
<polygon fill="black" stroke="black" points="602.47,-467.58 600.71,-460.38 597.6,-467.11 602.47,-467.58"/>
<text text-anchor="middle" x="590.7" y="-509.94" font-family="Arial" font-size="7.00">1:N</text>
</g>
<!-- saude_enfermidades -->
<g id="node6" class="node">
<title>saude_enfermidades</title>
<polygon fill="#ffffff" stroke="transparent" points="182,-371.5 182,-463.5 290,-463.5 290,-371.5 182,-371.5"/>
<polygon fill="#4a90d9" stroke="transparent" points="183,-447.5 183,-462.5 289,-462.5 289,-447.5 183,-447.5"/>
<polygon fill="none" stroke="black" points="183,-447.5 183,-462.5 289,-462.5 289,-447.5 183,-447.5"/>
<text text-anchor="start" x="195" y="-454.1" font-family="Arial" font-weight="bold" font-size="8.00">saude_enfermidades</text>
<polygon fill="none" stroke="black" points="183,-432.5 183,-447.5 250,-447.5 250,-432.5 183,-432.5"/>
<text text-anchor="start" x="186" y="-438.1" font-family="Arial" font-size="8.00">id_enfermidade</text>
<polygon fill="none" stroke="black" points="250,-432.5 250,-447.5 289,-447.5 289,-432.5 250,-432.5"/>
<text text-anchor="start" x="253" y="-438.1" font-family="Arial" font-size="8.00">INT PK</text>
<polygon fill="none" stroke="black" points="183,-417.5 183,-432.5 250,-432.5 250,-417.5 183,-417.5"/>
<text text-anchor="start" x="186" y="-423.1" font-family="Arial" font-size="8.00">id_fichamedica</text>
<polygon fill="none" stroke="black" points="250,-417.5 250,-432.5 289,-432.5 289,-417.5 250,-417.5"/>
<text text-anchor="start" x="253" y="-423.1" font-family="Arial" font-size="8.00">INT FK</text>
<polygon fill="none" stroke="black" points="183,-402.5 183,-417.5 250,-417.5 250,-402.5 183,-402.5"/>
<text text-anchor="start" x="186" y="-408.1" font-family="Arial" font-size="8.00">id_CID</text>
<polygon fill="none" stroke="black" points="250,-402.5 250,-417.5 289,-417.5 289,-402.5 250,-402.5"/>
<text text-anchor="start" x="253" y="-408.1" font-family="Arial" font-size="8.00">INT FK</text>
<polygon fill="none" stroke="black" points="183,-387.5 183,-402.5 250,-402.5 250,-387.5 183,-387.5"/>
<text text-anchor="start" x="186" y="-393.1" font-family="Arial" font-size="8.00">data_diagnostico</text>
<polygon fill="none" stroke="black" points="250,-387.5 250,-402.5 289,-402.5 289,-387.5 250,-387.5"/>
<text text-anchor="start" x="253" y="-393.1" font-family="Arial" font-size="8.00">DATE</text>
<polygon fill="none" stroke="black" points="183,-372.5 183,-387.5 250,-387.5 250,-372.5 183,-372.5"/>
<text text-anchor="start" x="186" y="-378.1" font-family="Arial" font-size="8.00">status</text>
<polygon fill="none" stroke="black" points="250,-372.5 250,-387.5 289,-387.5 289,-372.5 250,-372.5"/>
<text text-anchor="start" x="253" y="-378.1" font-family="Arial" font-size="8.00">TINYINT</text>
<polygon fill="none" stroke="black" points="182,-371.5 182,-463.5 290,-463.5 290,-371.5 182,-371.5"/>
</g>
<!-- saude_fichamedica&#45;&gt;saude_enfermidades -->
<g id="edge6" class="edge">
<title>saude_fichamedica&#45;&gt;saude_enfermidades</title>
<path fill="none" stroke="black" d="M550.31,-580.6C387.36,-552.26 351.83,-540.88 286.6,-473.01"/>
<polygon fill="black" stroke="black" points="288.04,-470.97 281.43,-467.59 284.49,-474.35 288.04,-470.97"/>
<text text-anchor="middle" x="375.81" y="-544.02" font-family="Arial" font-size="7.00">1:N</text>
</g>
<!-- saude_exames -->
<g id="node8" class="node">
<title>saude_exames</title>
<polygon fill="#ffffff" stroke="transparent" points="342.5,-356.5 342.5,-478.5 467.5,-478.5 467.5,-356.5 342.5,-356.5"/>
<polygon fill="#4a90d9" stroke="transparent" points="344,-462.5 344,-477.5 467,-477.5 467,-462.5 344,-462.5"/>
<polygon fill="none" stroke="black" points="344,-462.5 344,-477.5 467,-477.5 467,-462.5 344,-462.5"/>
<text text-anchor="start" x="376.5" y="-469.1" font-family="Arial" font-weight="bold" font-size="8.00">saude_exames</text>
<polygon fill="none" stroke="black" points="344,-447.5 344,-462.5 414,-462.5 414,-447.5 344,-447.5"/>
<text text-anchor="start" x="347" y="-453.1" font-family="Arial" font-size="8.00">id_exame</text>
<polygon fill="none" stroke="black" points="414,-447.5 414,-462.5 467,-462.5 467,-447.5 414,-447.5"/>
<text text-anchor="start" x="417" y="-453.1" font-family="Arial" font-size="8.00">INT PK</text>
<polygon fill="none" stroke="black" points="344,-432.5 344,-447.5 414,-447.5 414,-432.5 344,-432.5"/>
<text text-anchor="start" x="347" y="-438.1" font-family="Arial" font-size="8.00">id_fichamedica</text>
<polygon fill="none" stroke="black" points="414,-432.5 414,-447.5 467,-447.5 467,-432.5 414,-432.5"/>
<text text-anchor="start" x="417" y="-438.1" font-family="Arial" font-size="8.00">INT FK</text>
<polygon fill="none" stroke="black" points="344,-417.5 344,-432.5 414,-432.5 414,-417.5 344,-417.5"/>
<text text-anchor="start" x="347" y="-423.1" font-family="Arial" font-size="8.00">id_exame_tipo</text>
<polygon fill="none" stroke="black" points="414,-417.5 414,-432.5 467,-432.5 467,-417.5 414,-417.5"/>
<text text-anchor="start" x="417" y="-423.1" font-family="Arial" font-size="8.00">INT FK</text>
<polygon fill="none" stroke="black" points="344,-402.5 344,-417.5 414,-417.5 414,-402.5 344,-402.5"/>
<text text-anchor="start" x="347" y="-408.1" font-family="Arial" font-size="8.00">data</text>
<polygon fill="none" stroke="black" points="414,-402.5 414,-417.5 467,-417.5 467,-402.5 414,-402.5"/>
<text text-anchor="start" x="417" y="-408.1" font-family="Arial" font-size="8.00">TIMESTAMP</text>
<polygon fill="none" stroke="black" points="344,-387.5 344,-402.5 414,-402.5 414,-387.5 344,-387.5"/>
<text text-anchor="start" x="347" y="-393.1" font-family="Arial" font-size="8.00">arquivo_nome</text>
<polygon fill="none" stroke="black" points="414,-387.5 414,-402.5 467,-402.5 467,-387.5 414,-387.5"/>
<text text-anchor="start" x="417" y="-393.1" font-family="Arial" font-size="8.00">VARCHAR</text>
<polygon fill="none" stroke="black" points="344,-372.5 344,-387.5 414,-387.5 414,-372.5 344,-372.5"/>
<text text-anchor="start" x="347" y="-378.1" font-family="Arial" font-size="8.00">arquivo_extensao</text>
<polygon fill="none" stroke="black" points="414,-372.5 414,-387.5 467,-387.5 467,-372.5 414,-372.5"/>
<text text-anchor="start" x="417" y="-378.1" font-family="Arial" font-size="8.00">VARCHAR</text>
<polygon fill="none" stroke="black" points="344,-357.5 344,-372.5 414,-372.5 414,-357.5 344,-357.5"/>
<text text-anchor="start" x="347" y="-363.1" font-family="Arial" font-size="8.00">arquivo</text>
<polygon fill="none" stroke="black" points="414,-357.5 414,-372.5 467,-372.5 467,-357.5 414,-357.5"/>
<text text-anchor="start" x="417" y="-363.1" font-family="Arial" font-size="8.00">VARCHAR</text>
<polygon fill="none" stroke="black" points="342.5,-356.5 342.5,-478.5 467.5,-478.5 467.5,-356.5 342.5,-356.5"/>
</g>
<!-- saude_fichamedica&#45;&gt;saude_exames -->
<g id="edge8" class="edge">
<title>saude_fichamedica&#45;&gt;saude_exames</title>
<path fill="none" stroke="black" d="M550.47,-570.01C490.18,-546.89 468.58,-532.15 442.49,-488.57"/>
<polygon fill="black" stroke="black" points="444.6,-487.32 438.95,-482.52 440.38,-489.8 444.6,-487.32"/>
<text text-anchor="middle" x="477.61" y="-539.33" font-family="Arial" font-size="7.00">1:N</text>
</g>
<!-- saude_atendimento -->
<g id="node10" class="node">
<title>saude_atendimento</title>
<polygon fill="#ffffff" stroke="transparent" points="1106.5,-356.5 1106.5,-478.5 1211.5,-478.5 1211.5,-356.5 1106.5,-356.5"/>
<polygon fill="#4a90d9" stroke="transparent" points="1108,-462.5 1108,-477.5 1211,-477.5 1211,-462.5 1108,-462.5"/>
<polygon fill="none" stroke="black" points="1108,-462.5 1108,-477.5 1211,-477.5 1211,-462.5 1108,-462.5"/>
<text text-anchor="start" x="1120" y="-469.1" font-family="Arial" font-weight="bold" font-size="8.00">saude_atendimento</text>
<polygon fill="none" stroke="black" points="1108,-447.5 1108,-462.5 1179,-462.5 1179,-447.5 1108,-447.5"/>
<text text-anchor="start" x="1111" y="-453.1" font-family="Arial" font-size="8.00">id_atendimento</text>
<polygon fill="none" stroke="black" points="1179,-447.5 1179,-462.5 1211,-462.5 1211,-447.5 1179,-447.5"/>
<text text-anchor="start" x="1182" y="-453.1" font-family="Arial" font-size="8.00">INT PK</text>
<polygon fill="none" stroke="black" points="1108,-432.5 1108,-447.5 1179,-447.5 1179,-432.5 1108,-432.5"/>
<text text-anchor="start" x="1111" y="-438.1" font-family="Arial" font-size="8.00">id_fichamedica</text>
<polygon fill="none" stroke="black" points="1179,-432.5 1179,-447.5 1211,-447.5 1211,-432.5 1179,-432.5"/>
<text text-anchor="start" x="1182" y="-438.1" font-family="Arial" font-size="8.00">INT FK</text>
<polygon fill="none" stroke="black" points="1108,-417.5 1108,-432.5 1179,-432.5 1179,-417.5 1108,-417.5"/>
<text text-anchor="start" x="1111" y="-423.1" font-family="Arial" font-size="8.00">id_funcionario</text>
<polygon fill="none" stroke="black" points="1179,-417.5 1179,-432.5 1211,-432.5 1211,-417.5 1179,-417.5"/>
<text text-anchor="start" x="1182" y="-423.1" font-family="Arial" font-size="8.00">INT FK</text>
<polygon fill="none" stroke="black" points="1108,-402.5 1108,-417.5 1179,-417.5 1179,-402.5 1108,-402.5"/>
<text text-anchor="start" x="1111" y="-408.1" font-family="Arial" font-size="8.00">id_medico</text>
<polygon fill="none" stroke="black" points="1179,-402.5 1179,-417.5 1211,-417.5 1211,-402.5 1179,-402.5"/>
<text text-anchor="start" x="1182" y="-408.1" font-family="Arial" font-size="8.00">INT FK</text>
<polygon fill="none" stroke="black" points="1108,-387.5 1108,-402.5 1179,-402.5 1179,-387.5 1108,-387.5"/>
<text text-anchor="start" x="1111" y="-393.1" font-family="Arial" font-size="8.00">data_registro</text>
<polygon fill="none" stroke="black" points="1179,-387.5 1179,-402.5 1211,-402.5 1211,-387.5 1179,-387.5"/>
<text text-anchor="start" x="1182" y="-393.1" font-family="Arial" font-size="8.00">DATE</text>
<polygon fill="none" stroke="black" points="1108,-372.5 1108,-387.5 1179,-387.5 1179,-372.5 1108,-372.5"/>
<text text-anchor="start" x="1111" y="-378.1" font-family="Arial" font-size="8.00">data_atendimento</text>
<polygon fill="none" stroke="black" points="1179,-372.5 1179,-387.5 1211,-387.5 1211,-372.5 1179,-372.5"/>
<text text-anchor="start" x="1182" y="-378.1" font-family="Arial" font-size="8.00">DATE</text>
<polygon fill="none" stroke="black" points="1108,-357.5 1108,-372.5 1179,-372.5 1179,-357.5 1108,-357.5"/>
<text text-anchor="start" x="1111" y="-363.1" font-family="Arial" font-size="8.00">descricao</text>
<polygon fill="none" stroke="black" points="1179,-357.5 1179,-372.5 1211,-372.5 1211,-357.5 1179,-357.5"/>
<text text-anchor="start" x="1182" y="-363.1" font-family="Arial" font-size="8.00">TEXT</text>
<polygon fill="none" stroke="black" points="1106.5,-356.5 1106.5,-478.5 1211.5,-478.5 1211.5,-356.5 1106.5,-356.5"/>
</g>
<!-- saude_fichamedica&#45;&gt;saude_atendimento -->
<g id="edge9" class="edge">
<title>saude_fichamedica&#45;&gt;saude_atendimento</title>
<path fill="none" stroke="black" d="M659.58,-586.8C932.23,-570.58 978.54,-562.87 1092.77,-472.02"/>
<polygon fill="black" stroke="black" points="1094.32,-473.92 1098.26,-467.63 1091.26,-470.09 1094.32,-473.92"/>
<text text-anchor="middle" x="929.58" y="-559.79" font-family="Arial" font-size="7.00">1:N</text>
</g>
<!-- saude_sinais_vitais -->
<g id="node12" class="node">
<title>saude_sinais_vitais</title>
<polygon fill="#ffffff" stroke="transparent" points="743,-334 743,-501 887,-501 887,-334 743,-334"/>
<polygon fill="#4a90d9" stroke="transparent" points="744,-484.5 744,-499.5 886,-499.5 886,-484.5 744,-484.5"/>
<polygon fill="none" stroke="black" points="744,-484.5 744,-499.5 886,-499.5 886,-484.5 744,-484.5"/>
<text text-anchor="start" x="776" y="-491.1" font-family="Arial" font-weight="bold" font-size="8.00">saude_sinais_vitais</text>
<polygon fill="none" stroke="black" points="744,-469.5 744,-484.5 833,-484.5 833,-469.5 744,-469.5"/>
<text text-anchor="start" x="747" y="-475.1" font-family="Arial" font-size="8.00">id_sinais_vitais</text>
<polygon fill="none" stroke="black" points="833,-469.5 833,-484.5 886,-484.5 886,-469.5 833,-469.5"/>
<text text-anchor="start" x="836" y="-475.1" font-family="Arial" font-size="8.00">INT PK</text>
<polygon fill="none" stroke="black" points="744,-454.5 744,-469.5 833,-469.5 833,-454.5 744,-454.5"/>
<text text-anchor="start" x="747" y="-460.1" font-family="Arial" font-size="8.00">id_fichamedica</text>
<polygon fill="none" stroke="black" points="833,-454.5 833,-469.5 886,-469.5 886,-454.5 833,-454.5"/>
<text text-anchor="start" x="836" y="-460.1" font-family="Arial" font-size="8.00">INT FK</text>
<polygon fill="none" stroke="black" points="744,-439.5 744,-454.5 833,-454.5 833,-439.5 744,-439.5"/>
<text text-anchor="start" x="747" y="-445.1" font-family="Arial" font-size="8.00">id_funcionario</text>
<polygon fill="none" stroke="black" points="833,-439.5 833,-454.5 886,-454.5 886,-439.5 833,-439.5"/>
<text text-anchor="start" x="836" y="-445.1" font-family="Arial" font-size="8.00">INT FK</text>
<polygon fill="none" stroke="black" points="744,-424.5 744,-439.5 833,-439.5 833,-424.5 744,-424.5"/>
<text text-anchor="start" x="747" y="-430.1" font-family="Arial" font-size="8.00">data</text>
<polygon fill="none" stroke="black" points="833,-424.5 833,-439.5 886,-439.5 886,-424.5 833,-424.5"/>
<text text-anchor="start" x="836" y="-430.1" font-family="Arial" font-size="8.00">TIMESTAMP</text>
<polygon fill="none" stroke="black" points="744,-409.5 744,-424.5 833,-424.5 833,-409.5 744,-409.5"/>
<text text-anchor="start" x="747" y="-415.1" font-family="Arial" font-size="8.00">saturacao</text>
<polygon fill="none" stroke="black" points="833,-409.5 833,-424.5 886,-424.5 886,-409.5 833,-409.5"/>
<text text-anchor="start" x="836" y="-415.1" font-family="Arial" font-size="8.00">DECIMAL</text>
<polygon fill="none" stroke="black" points="744,-394.5 744,-409.5 833,-409.5 833,-394.5 744,-394.5"/>
<text text-anchor="start" x="747" y="-400.1" font-family="Arial" font-size="8.00">pressao_arterial</text>
<polygon fill="none" stroke="black" points="833,-394.5 833,-409.5 886,-409.5 886,-394.5 833,-394.5"/>
<text text-anchor="start" x="836" y="-400.1" font-family="Arial" font-size="8.00">VARCHAR</text>
<polygon fill="none" stroke="black" points="744,-379.5 744,-394.5 833,-394.5 833,-379.5 744,-379.5"/>
<text text-anchor="start" x="747" y="-385.1" font-family="Arial" font-size="8.00">frequencia_cardiaca</text>
<polygon fill="none" stroke="black" points="833,-379.5 833,-394.5 886,-394.5 886,-379.5 833,-379.5"/>
<text text-anchor="start" x="836" y="-385.1" font-family="Arial" font-size="8.00">INT</text>
<polygon fill="none" stroke="black" points="744,-364.5 744,-379.5 833,-379.5 833,-364.5 744,-364.5"/>
<text text-anchor="start" x="747" y="-370.1" font-family="Arial" font-size="8.00">frequencia_respiratoria</text>
<polygon fill="none" stroke="black" points="833,-364.5 833,-379.5 886,-379.5 886,-364.5 833,-364.5"/>
<text text-anchor="start" x="836" y="-370.1" font-family="Arial" font-size="8.00">INT</text>
<polygon fill="none" stroke="black" points="744,-349.5 744,-364.5 833,-364.5 833,-349.5 744,-349.5"/>
<text text-anchor="start" x="747" y="-355.1" font-family="Arial" font-size="8.00">temperatura</text>
<polygon fill="none" stroke="black" points="833,-349.5 833,-364.5 886,-364.5 886,-349.5 833,-349.5"/>
<text text-anchor="start" x="836" y="-355.1" font-family="Arial" font-size="8.00">DECIMAL</text>
<polygon fill="none" stroke="black" points="744,-334.5 744,-349.5 833,-349.5 833,-334.5 744,-334.5"/>
<text text-anchor="start" x="747" y="-340.1" font-family="Arial" font-size="8.00">hgt</text>
<polygon fill="none" stroke="black" points="833,-334.5 833,-349.5 886,-349.5 886,-334.5 833,-334.5"/>
<text text-anchor="start" x="836" y="-340.1" font-family="Arial" font-size="8.00">DECIMAL</text>
<polygon fill="none" stroke="black" points="743,-334 743,-501 887,-501 887,-334 743,-334"/>
</g>
<!-- saude_fichamedica&#45;&gt;saude_sinais_vitais -->
<g id="edge13" class="edge">
<title>saude_fichamedica&#45;&gt;saude_sinais_vitais</title>
<path fill="none" stroke="black" d="M659.58,-573.88C703.51,-559.6 725.03,-546.43 752.44,-511.12"/>
<polygon fill="black" stroke="black" points="754.61,-512.32 756.9,-505.26 750.71,-509.35 754.61,-512.32"/>
<text text-anchor="middle" x="708.53" y="-551.2" font-family="Arial" font-size="7.00">1:N</text>
</g>
<!-- saude_intercorrencia -->
<g id="node14" class="node">
<title>saude_intercorrencia</title>
<polygon fill="#ffffff" stroke="transparent" points="939.5,-371.5 939.5,-463.5 1054.5,-463.5 1054.5,-371.5 939.5,-371.5"/>
<polygon fill="#4a90d9" stroke="transparent" points="941,-447.5 941,-462.5 1054,-462.5 1054,-447.5 941,-447.5"/>
<polygon fill="none" stroke="black" points="941,-447.5 941,-462.5 1054,-462.5 1054,-447.5 941,-447.5"/>
<text text-anchor="start" x="955.5" y="-454.1" font-family="Arial" font-weight="bold" font-size="8.00">saude_intercorrencia</text>
<polygon fill="none" stroke="black" points="941,-432.5 941,-447.5 1007,-447.5 1007,-432.5 941,-432.5"/>
<text text-anchor="start" x="944" y="-438.1" font-family="Arial" font-size="8.00">id_intercorrencia</text>
<polygon fill="none" stroke="black" points="1007,-432.5 1007,-447.5 1054,-447.5 1054,-432.5 1007,-432.5"/>
<text text-anchor="start" x="1010" y="-438.1" font-family="Arial" font-size="8.00">INT PK</text>
<polygon fill="none" stroke="black" points="941,-417.5 941,-432.5 1007,-432.5 1007,-417.5 941,-417.5"/>
<text text-anchor="start" x="944" y="-423.1" font-family="Arial" font-size="8.00">data</text>
<polygon fill="none" stroke="black" points="1007,-417.5 1007,-432.5 1054,-432.5 1054,-417.5 1007,-417.5"/>
<text text-anchor="start" x="1010" y="-423.1" font-family="Arial" font-size="8.00">DATETIME</text>
<polygon fill="none" stroke="black" points="941,-402.5 941,-417.5 1007,-417.5 1007,-402.5 941,-402.5"/>
<text text-anchor="start" x="944" y="-408.1" font-family="Arial" font-size="8.00">descricao</text>
<polygon fill="none" stroke="black" points="1007,-402.5 1007,-417.5 1054,-417.5 1054,-402.5 1007,-402.5"/>
<text text-anchor="start" x="1010" y="-408.1" font-family="Arial" font-size="8.00">TEXT</text>
<polygon fill="none" stroke="black" points="941,-387.5 941,-402.5 1007,-402.5 1007,-387.5 941,-387.5"/>
<text text-anchor="start" x="944" y="-393.1" font-family="Arial" font-size="8.00">id_funcionario</text>
<polygon fill="none" stroke="black" points="1007,-387.5 1007,-402.5 1054,-402.5 1054,-387.5 1007,-387.5"/>
<text text-anchor="start" x="1010" y="-393.1" font-family="Arial" font-size="8.00">INT FK</text>
<polygon fill="none" stroke="black" points="941,-372.5 941,-387.5 1007,-387.5 1007,-372.5 941,-372.5"/>
<text text-anchor="start" x="944" y="-378.1" font-family="Arial" font-size="8.00">id_fichamedica</text>
<polygon fill="none" stroke="black" points="1007,-372.5 1007,-387.5 1054,-387.5 1054,-372.5 1007,-372.5"/>
<text text-anchor="start" x="1010" y="-378.1" font-family="Arial" font-size="8.00">INT FK</text>
<polygon fill="none" stroke="black" points="939.5,-371.5 939.5,-463.5 1054.5,-463.5 1054.5,-371.5 939.5,-371.5"/>
</g>
<!-- saude_fichamedica&#45;&gt;saude_intercorrencia -->
<g id="edge17" class="edge">
<title>saude_fichamedica&#45;&gt;saude_intercorrencia</title>
<path fill="none" stroke="black" d="M659.65,-584.76C829.56,-568.02 862.94,-557.88 945.34,-472.7"/>
<polygon fill="black" stroke="black" points="947.23,-474.26 950.32,-467.52 943.7,-470.86 947.23,-474.26"/>
<text text-anchor="middle" x="829.32" y="-556.79" font-family="Arial" font-size="7.00">1:N</text>
</g>
<!-- saude_tabelacid -->
<g id="node5" class="node">
<title>saude_tabelacid</title>
<polygon fill="#ffffff" stroke="transparent" points="192,-559 192,-621 280,-621 280,-559 192,-559"/>
<polygon fill="#4a90d9" stroke="transparent" points="193,-605 193,-620 279,-620 279,-605 193,-605"/>
<polygon fill="none" stroke="black" points="193,-605 193,-620 279,-620 279,-605 193,-605"/>
<text text-anchor="start" x="203.5" y="-611.6" font-family="Arial" font-weight="bold" font-size="8.00">saude_tabelacid</text>
<polygon fill="none" stroke="black" points="193,-590 193,-605 233,-605 233,-590 193,-590"/>
<text text-anchor="start" x="196" y="-595.6" font-family="Arial" font-size="8.00">id_CID</text>
<polygon fill="none" stroke="black" points="233,-590 233,-605 279,-605 279,-590 233,-590"/>
<text text-anchor="start" x="236" y="-595.6" font-family="Arial" font-size="8.00">INT PK</text>
<polygon fill="none" stroke="black" points="193,-575 193,-590 233,-590 233,-575 193,-575"/>
<text text-anchor="start" x="196" y="-580.6" font-family="Arial" font-size="8.00">CID</text>
<polygon fill="none" stroke="black" points="233,-575 233,-590 279,-590 279,-575 233,-575"/>
<text text-anchor="start" x="236" y="-580.6" font-family="Arial" font-size="8.00">VARCHAR</text>
<polygon fill="none" stroke="black" points="193,-560 193,-575 233,-575 233,-560 193,-560"/>
<text text-anchor="start" x="196" y="-565.6" font-family="Arial" font-size="8.00">descricao</text>
<polygon fill="none" stroke="black" points="233,-560 233,-575 279,-575 279,-560 233,-560"/>
<text text-anchor="start" x="236" y="-565.6" font-family="Arial" font-size="8.00">VARCHAR</text>
<polygon fill="none" stroke="black" points="192,-559 192,-621 280,-621 280,-559 192,-559"/>
</g>
<!-- saude_tabelacid&#45;&gt;saude_enfermidades -->
<g id="edge5" class="edge">
<title>saude_tabelacid&#45;&gt;saude_enfermidades</title>
<path fill="none" stroke="black" d="M221.24,-554.96C209.63,-524.91 208.48,-508.63 217.79,-474.71"/>
<polygon fill="black" stroke="black" points="220.23,-475.09 219.79,-467.69 215.52,-473.75 220.23,-475.09"/>
<text text-anchor="middle" x="205.58" y="-513.56" font-family="Arial" font-size="7.00">1:N</text>
</g>
<!-- saude_exame_tipos -->
<g id="node7" class="node">
<title>saude_exame_tipos</title>
<polygon fill="#ffffff" stroke="transparent" points="352,-566.5 352,-613.5 458,-613.5 458,-566.5 352,-566.5"/>
<polygon fill="#4a90d9" stroke="transparent" points="353,-597 353,-612 457,-612 457,-597 353,-597"/>
<polygon fill="none" stroke="black" points="353,-597 353,-612 457,-612 457,-597 353,-597"/>
<text text-anchor="start" x="365.5" y="-603.6" font-family="Arial" font-weight="bold" font-size="8.00">saude_exame_tipos</text>
<polygon fill="none" stroke="black" points="353,-582 353,-597 411,-597 411,-582 353,-582"/>
<text text-anchor="start" x="356" y="-587.6" font-family="Arial" font-size="8.00">id_exame_tipo</text>
<polygon fill="none" stroke="black" points="411,-582 411,-597 457,-597 457,-582 411,-582"/>
<text text-anchor="start" x="414" y="-587.6" font-family="Arial" font-size="8.00">INT PK</text>
<polygon fill="none" stroke="black" points="353,-567 353,-582 411,-582 411,-567 353,-567"/>
<text text-anchor="start" x="356" y="-572.6" font-family="Arial" font-size="8.00">descricao</text>
<polygon fill="none" stroke="black" points="411,-567 411,-582 457,-582 457,-567 411,-567"/>
<text text-anchor="start" x="414" y="-572.6" font-family="Arial" font-size="8.00">VARCHAR</text>
<polygon fill="none" stroke="black" points="352,-566.5 352,-613.5 458,-613.5 458,-566.5 352,-566.5"/>
</g>
<!-- saude_exame_tipos&#45;&gt;saude_exames -->
<g id="edge7" class="edge">
<title>saude_exame_tipos&#45;&gt;saude_exames</title>
<path fill="none" stroke="black" d="M393.32,-562.39C382.34,-534.81 379.82,-519.25 385.76,-489.59"/>
<polygon fill="black" stroke="black" points="388.19,-489.96 387.26,-482.61 383.4,-488.94 388.19,-489.96"/>
<text text-anchor="middle" x="376.86" y="-525.53" font-family="Arial" font-size="7.00">1:N</text>
</g>
<!-- saude_medicos -->
<g id="node9" class="node">
<title>saude_medicos</title>
<polygon fill="#ffffff" stroke="transparent" points="1113.5,-559 1113.5,-621 1204.5,-621 1204.5,-559 1113.5,-559"/>
<polygon fill="#4a90d9" stroke="transparent" points="1115,-605 1115,-620 1204,-620 1204,-605 1115,-605"/>
<polygon fill="none" stroke="black" points="1115,-605 1115,-620 1204,-620 1204,-605 1115,-605"/>
<text text-anchor="start" x="1128.5" y="-611.6" font-family="Arial" font-weight="bold" font-size="8.00">saude_medicos</text>
<polygon fill="none" stroke="black" points="1115,-590 1115,-605 1158,-605 1158,-590 1115,-590"/>
<text text-anchor="start" x="1118" y="-595.6" font-family="Arial" font-size="8.00">id_medico</text>
<polygon fill="none" stroke="black" points="1158,-590 1158,-605 1204,-605 1204,-590 1158,-590"/>
<text text-anchor="start" x="1161" y="-595.6" font-family="Arial" font-size="8.00">INT PK</text>
<polygon fill="none" stroke="black" points="1115,-575 1115,-590 1158,-590 1158,-575 1115,-575"/>
<text text-anchor="start" x="1118" y="-580.6" font-family="Arial" font-size="8.00">crm</text>
<polygon fill="none" stroke="black" points="1158,-575 1158,-590 1204,-590 1204,-575 1158,-575"/>
<text text-anchor="start" x="1161" y="-580.6" font-family="Arial" font-size="8.00">CHAR</text>
<polygon fill="none" stroke="black" points="1115,-560 1115,-575 1158,-575 1158,-560 1115,-560"/>
<text text-anchor="start" x="1118" y="-565.6" font-family="Arial" font-size="8.00">nome</text>
<polygon fill="none" stroke="black" points="1158,-560 1158,-575 1204,-575 1204,-560 1158,-560"/>
<text text-anchor="start" x="1161" y="-565.6" font-family="Arial" font-size="8.00">VARCHAR</text>
<polygon fill="none" stroke="black" points="1113.5,-559 1113.5,-621 1204.5,-621 1204.5,-559 1113.5,-559"/>
</g>
<!-- saude_medicos&#45;&gt;saude_atendimento -->
<g id="edge10" class="edge">
<title>saude_medicos&#45;&gt;saude_atendimento</title>
<path fill="none" stroke="black" d="M1173.75,-554.89C1183.75,-529.08 1186.29,-513.44 1181.37,-489.49"/>
<polygon fill="black" stroke="black" points="1183.73,-488.79 1179.79,-482.51 1178.95,-489.87 1183.73,-488.79"/>
<text text-anchor="middle" x="1177.42" y="-521.52" font-family="Arial" font-size="7.00">1:N</text>
</g>
<!-- saude_medicacao -->
<g id="node11" class="node">
<title>saude_medicacao</title>
<polygon fill="#ffffff" stroke="transparent" points="1103.5,-154 1103.5,-276 1212.5,-276 1212.5,-154 1103.5,-154"/>
<polygon fill="#4a90d9" stroke="transparent" points="1105,-260 1105,-275 1212,-275 1212,-260 1105,-260"/>
<polygon fill="none" stroke="black" points="1105,-260 1105,-275 1212,-275 1212,-260 1105,-260"/>
<text text-anchor="start" x="1123" y="-266.6" font-family="Arial" font-weight="bold" font-size="8.00">saude_medicacao</text>
<polygon fill="none" stroke="black" points="1105,-245 1105,-260 1166,-260 1166,-245 1105,-245"/>
<text text-anchor="start" x="1108" y="-250.6" font-family="Arial" font-size="8.00">id_medicacao</text>
<polygon fill="none" stroke="black" points="1166,-245 1166,-260 1212,-260 1212,-245 1166,-245"/>
<text text-anchor="start" x="1169" y="-250.6" font-family="Arial" font-size="8.00">INT PK</text>
<polygon fill="none" stroke="black" points="1105,-230 1105,-245 1166,-245 1166,-230 1105,-230"/>
<text text-anchor="start" x="1108" y="-235.6" font-family="Arial" font-size="8.00">id_atendimento</text>
<polygon fill="none" stroke="black" points="1166,-230 1166,-245 1212,-245 1212,-230 1166,-230"/>
<text text-anchor="start" x="1169" y="-235.6" font-family="Arial" font-size="8.00">INT FK</text>
<polygon fill="none" stroke="black" points="1105,-215 1105,-230 1166,-230 1166,-215 1105,-215"/>
<text text-anchor="start" x="1108" y="-220.6" font-family="Arial" font-size="8.00">medicamento</text>
<polygon fill="none" stroke="black" points="1166,-215 1166,-230 1212,-230 1212,-215 1166,-215"/>
<text text-anchor="start" x="1169" y="-220.6" font-family="Arial" font-size="8.00">VARCHAR</text>
<polygon fill="none" stroke="black" points="1105,-200 1105,-215 1166,-215 1166,-200 1105,-200"/>
<text text-anchor="start" x="1108" y="-205.6" font-family="Arial" font-size="8.00">dosagem</text>
<polygon fill="none" stroke="black" points="1166,-200 1166,-215 1212,-215 1212,-200 1166,-200"/>
<text text-anchor="start" x="1169" y="-205.6" font-family="Arial" font-size="8.00">VARCHAR</text>
<polygon fill="none" stroke="black" points="1105,-185 1105,-200 1166,-200 1166,-185 1105,-185"/>
<text text-anchor="start" x="1108" y="-190.6" font-family="Arial" font-size="8.00">horario</text>
<polygon fill="none" stroke="black" points="1166,-185 1166,-200 1212,-200 1212,-185 1166,-185"/>
<text text-anchor="start" x="1169" y="-190.6" font-family="Arial" font-size="8.00">VARCHAR</text>
<polygon fill="none" stroke="black" points="1105,-170 1105,-185 1166,-185 1166,-170 1105,-170"/>
<text text-anchor="start" x="1108" y="-175.6" font-family="Arial" font-size="8.00">duracao</text>
<polygon fill="none" stroke="black" points="1166,-170 1166,-185 1212,-185 1212,-170 1166,-170"/>
<text text-anchor="start" x="1169" y="-175.6" font-family="Arial" font-size="8.00">VARCHAR</text>
<polygon fill="none" stroke="black" points="1105,-155 1105,-170 1166,-170 1166,-155 1105,-155"/>
<text text-anchor="start" x="1108" y="-160.6" font-family="Arial" font-size="8.00">status</text>
<polygon fill="none" stroke="black" points="1166,-155 1166,-170 1212,-170 1212,-155 1166,-155"/>
<text text-anchor="start" x="1169" y="-160.6" font-family="Arial" font-size="8.00">ENUM</text>
<polygon fill="none" stroke="black" points="1103.5,-154 1103.5,-276 1212.5,-276 1212.5,-154 1103.5,-154"/>
</g>
<!-- saude_atendimento&#45;&gt;saude_medicacao -->
<g id="edge12" class="edge">
<title>saude_atendimento&#45;&gt;saude_medicacao</title>
<path fill="none" stroke="black" d="M1182.43,-352.22C1189.88,-326.78 1190.79,-309.52 1185.1,-287.13"/>
<polygon fill="black" stroke="black" points="1187.45,-286.43 1183.22,-280.34 1182.72,-287.74 1187.45,-286.43"/>
<text text-anchor="middle" x="1182.77" y="-318.52" font-family="Arial" font-size="7.00">1:N</text>
</g>
<!-- saude_medicamento_administracao -->
<g id="node13" class="node">
<title>saude_medicamento_administracao</title>
<polygon fill="#ffffff" stroke="transparent" points="1122,-4 1122,-96 1312,-96 1312,-4 1122,-4"/>
<polygon fill="#4a90d9" stroke="transparent" points="1123,-80 1123,-95 1311,-95 1311,-80 1123,-80"/>
<polygon fill="none" stroke="black" points="1123,-80 1123,-95 1311,-95 1311,-80 1123,-80"/>
<text text-anchor="start" x="1146" y="-86.6" font-family="Arial" font-weight="bold" font-size="8.00">saude_medicamento_administracao</text>
<polygon fill="none" stroke="black" points="1123,-65 1123,-80 1264,-80 1264,-65 1123,-65"/>
<text text-anchor="start" x="1126" y="-70.6" font-family="Arial" font-size="8.00">idsaude_medicamento_administracao</text>
<polygon fill="none" stroke="black" points="1264,-65 1264,-80 1311,-80 1311,-65 1264,-65"/>
<text text-anchor="start" x="1267" y="-70.6" font-family="Arial" font-size="8.00">INT PK</text>
<polygon fill="none" stroke="black" points="1123,-50 1123,-65 1264,-65 1264,-50 1123,-50"/>
<text text-anchor="start" x="1126" y="-55.6" font-family="Arial" font-size="8.00">registro</text>
<polygon fill="none" stroke="black" points="1264,-50 1264,-65 1311,-65 1311,-50 1264,-50"/>
<text text-anchor="start" x="1267" y="-55.6" font-family="Arial" font-size="8.00">DATETIME</text>
<polygon fill="none" stroke="black" points="1123,-35 1123,-50 1264,-50 1264,-35 1123,-35"/>
<text text-anchor="start" x="1126" y="-40.6" font-family="Arial" font-size="8.00">aplicacao</text>
<polygon fill="none" stroke="black" points="1264,-35 1264,-50 1311,-50 1311,-35 1264,-35"/>
<text text-anchor="start" x="1267" y="-40.6" font-family="Arial" font-size="8.00">DATETIME</text>
<polygon fill="none" stroke="black" points="1123,-20 1123,-35 1264,-35 1264,-20 1123,-20"/>
<text text-anchor="start" x="1126" y="-25.6" font-family="Arial" font-size="8.00">saude_medicacao_id_medicacao</text>
<polygon fill="none" stroke="black" points="1264,-20 1264,-35 1311,-35 1311,-20 1264,-20"/>
<text text-anchor="start" x="1267" y="-25.6" font-family="Arial" font-size="8.00">INT FK</text>
<polygon fill="none" stroke="black" points="1123,-5 1123,-20 1264,-20 1264,-5 1123,-5"/>
<text text-anchor="start" x="1126" y="-10.6" font-family="Arial" font-size="8.00">funcionario_id_funcionario</text>
<polygon fill="none" stroke="black" points="1264,-5 1264,-20 1311,-20 1311,-5 1264,-5"/>
<text text-anchor="start" x="1267" y="-10.6" font-family="Arial" font-size="8.00">INT FK</text>
<polygon fill="none" stroke="black" points="1122,-4 1122,-96 1312,-96 1312,-4 1122,-4"/>
</g>
<!-- saude_medicacao&#45;&gt;saude_medicamento_administracao -->
<g id="edge15" class="edge">
<title>saude_medicacao&#45;&gt;saude_medicamento_administracao</title>
<path fill="none" stroke="black" d="M1198.58,-149.85C1208.27,-132.64 1213.35,-120.29 1215.82,-107.23"/>
<polygon fill="black" stroke="black" points="1218.24,-107.59 1216.89,-100.3 1213.4,-106.85 1218.24,-107.59"/>
<text text-anchor="middle" x="1204.17" y="-128.74" font-family="Arial" font-size="7.00">1:N</text>
</g>
<!-- pessoa -->
<g id="node15" class="node">
<title>pessoa</title>
<text text-anchor="middle" x="605" y="-691.1" font-family="Arial" font-size="8.00">pessoa</text>
</g>
<!-- pessoa&#45;&gt;saude_fichamedica -->
<g id="edge1" class="edge">
<title>pessoa&#45;&gt;saude_fichamedica</title>
<path fill="none" stroke="black" d="M602.91,-674.84C601.85,-663.43 601.81,-653.89 602.79,-632.38"/>
<polygon fill="black" stroke="black" points="605.24,-632.42 603.13,-625.31 600.35,-632.18 605.24,-632.42"/>
<text text-anchor="middle" x="597.15" y="-652.58" font-family="Arial" font-size="7.00">1:1</text>
</g>
<!-- funcionario -->
<g id="node16" class="node">
<title>funcionario</title>
<text text-anchor="middle" x="1019" y="-588.1" font-family="Arial" font-size="8.00">funcionario</text>
</g>
<!-- funcionario&#45;&gt;saude_atendimento -->
<g id="edge11" class="edge">
<title>funcionario&#45;&gt;saude_atendimento</title>
<path fill="none" stroke="black" d="M1047.12,-571.92C1101.49,-536.69 1121.69,-520.72 1136.05,-489.12"/>
<polygon fill="black" stroke="black" points="1138.34,-489.98 1138.85,-482.58 1133.84,-488.05 1138.34,-489.98"/>
<text text-anchor="middle" x="1100.61" y="-531.54" font-family="Arial" font-size="7.00">1:N</text>
</g>
<!-- funcionario&#45;&gt;saude_sinais_vitais -->
<g id="edge14" class="edge">
<title>funcionario&#45;&gt;saude_sinais_vitais</title>
<path fill="none" stroke="black" d="M1001.91,-571.8C972.75,-541.01 956.86,-526.5 901.28,-483.48"/>
<polygon fill="black" stroke="black" points="902.45,-481.29 895.41,-478.95 899.45,-485.17 902.45,-481.29"/>
<text text-anchor="middle" x="944.63" y="-525.26" font-family="Arial" font-size="7.00">1:N</text>
</g>
<!-- funcionario&#45;&gt;saude_medicamento_administracao -->
<g id="edge16" class="edge">
<title>funcionario&#45;&gt;saude_medicamento_administracao</title>
<path fill="none" stroke="black" d="M1033.08,-571.62C1216.47,-332.15 1231.07,-307.86 1220.34,-107.52"/>
<polygon fill="black" stroke="black" points="1222.78,-107.17 1219.95,-100.32 1217.88,-107.44 1222.78,-107.17"/>
<text text-anchor="middle" x="1193.51" y="-327.29" font-family="Arial" font-size="7.00">1:N</text>
</g>
<!-- funcionario&#45;&gt;saude_intercorrencia -->
<g id="edge18" class="edge">
<title>funcionario&#45;&gt;saude_intercorrencia</title>
<path fill="none" stroke="black" d="M1024.23,-571.7C1035.59,-531.02 1036.62,-515.81 1020.72,-474.24"/>
<polygon fill="black" stroke="black" points="1022.96,-473.25 1018.13,-467.62 1018.4,-475.03 1022.96,-473.25"/>
<text text-anchor="middle" x="1026.47" y="-521.07" font-family="Arial" font-size="7.00">1:N</text>
</g>
</g>
</svg>
