<?xml version="1.0" encoding="UTF-8" standalone="no"?>
<!DOCTYPE svg PUBLIC "-//W3C//DTD SVG 1.1//EN"
 "http://www.w3.org/Graphics/SVG/1.1/DTD/svg11.dtd">
<!-- Generated by graphviz version 2.43.0 (0)
 -->
<!-- Title: MER_Material Pages: 1 -->
<svg width="854pt" height="423pt"
 viewBox="0.00 0.00 854.00 423.00" xmlns="http://www.w3.org/2000/svg" xmlns:xlink="http://www.w3.org/1999/xlink">
<g id="graph0" class="graph" transform="scale(1 1) rotate(0) translate(4 419)">
<title>MER_Material</title>
<polygon fill="white" stroke="transparent" points="-4,4 -4,-419 850,-419 850,4 -4,4"/>
<!-- material_parceiro -->
<g id="node1" class="node">
<title>material_parceiro</title>
<polygon fill="#ffffff" stroke="transparent" points="8,-319 8,-411 102,-411 102,-319 8,-319"/>
<polygon fill="#4a90d9" stroke="transparent" points="9,-395 9,-410 101,-410 101,-395 9,-395"/>
<polygon fill="none" stroke="black" points="9,-395 9,-410 101,-410 101,-395 9,-395"/>
<text text-anchor="start" x="21" y="-401.6" font-family="Arial" font-weight="bold" font-size="8.00">material_parceiro</text>
<polygon fill="none" stroke="black" points="9,-380 9,-395 55,-395 55,-380 9,-380"/>
<text text-anchor="start" x="12" y="-385.6" font-family="Arial" font-size="8.00">id_parceiro</text>
<polygon fill="none" stroke="black" points="55,-380 55,-395 101,-395 101,-380 55,-380"/>
<text text-anchor="start" x="58" y="-385.6" font-family="Arial" font-size="8.00">INT PK</text>
<polygon fill="none" stroke="black" points="9,-365 9,-380 55,-380 55,-365 9,-365"/>
<text text-anchor="start" x="12" y="-370.6" font-family="Arial" font-size="8.00">nome</text>
<polygon fill="none" stroke="black" points="55,-365 55,-380 101,-380 101,-365 55,-365"/>
<text text-anchor="start" x="58" y="-370.6" font-family="Arial" font-size="8.00">VARCHAR</text>
<polygon fill="none" stroke="black" points="9,-350 9,-365 55,-365 55,-350 9,-350"/>
<text text-anchor="start" x="12" y="-355.6" font-family="Arial" font-size="8.00">cpf</text>
<polygon fill="none" stroke="black" points="55,-350 55,-365 101,-365 101,-350 55,-350"/>
<text text-anchor="start" x="58" y="-355.6" font-family="Arial" font-size="8.00">VARCHAR</text>
<polygon fill="none" stroke="black" points="9,-335 9,-350 55,-350 55,-335 9,-335"/>
<text text-anchor="start" x="12" y="-340.6" font-family="Arial" font-size="8.00">cnpj</text>
<polygon fill="none" stroke="black" points="55,-335 55,-350 101,-350 101,-335 55,-335"/>
<text text-anchor="start" x="58" y="-340.6" font-family="Arial" font-size="8.00">VARCHAR</text>
<polygon fill="none" stroke="black" points="9,-320 9,-335 55,-335 55,-320 9,-320"/>
<text text-anchor="start" x="12" y="-325.6" font-family="Arial" font-size="8.00">telefone</text>
<polygon fill="none" stroke="black" points="55,-320 55,-335 101,-335 101,-320 55,-320"/>
<text text-anchor="start" x="58" y="-325.6" font-family="Arial" font-size="8.00">VARCHAR</text>
<polygon fill="none" stroke="black" points="8,-319 8,-411 102,-411 102,-319 8,-319"/>
</g>
<!-- material_transacao -->
<g id="node7" class="node">
<title>material_transacao</title>
<polygon fill="#ffffff" stroke="transparent" points="328.5,-154 328.5,-261 463.5,-261 463.5,-154 328.5,-154"/>
<polygon fill="#4a90d9" stroke="transparent" points="330,-244.5 330,-259.5 463,-259.5 463,-244.5 330,-244.5"/>
<polygon fill="none" stroke="black" points="330,-244.5 330,-259.5 463,-259.5 463,-244.5 330,-244.5"/>
<text text-anchor="start" x="359" y="-251.1" font-family="Arial" font-weight="bold" font-size="8.00">material_transacao</text>
<polygon fill="none" stroke="black" points="330,-229.5 330,-244.5 416,-244.5 416,-229.5 330,-229.5"/>
<text text-anchor="start" x="333" y="-235.1" font-family="Arial" font-size="8.00">id_transacao</text>
<polygon fill="none" stroke="black" points="416,-229.5 416,-244.5 463,-244.5 463,-229.5 416,-229.5"/>
<text text-anchor="start" x="419" y="-235.1" font-family="Arial" font-size="8.00">INT PK</text>
<polygon fill="none" stroke="black" points="330,-214.5 330,-229.5 416,-229.5 416,-214.5 330,-214.5"/>
<text text-anchor="start" x="333" y="-220.1" font-family="Arial" font-size="8.00">id_tipo_movimentacao</text>
<polygon fill="none" stroke="black" points="416,-214.5 416,-229.5 463,-229.5 463,-214.5 416,-214.5"/>
<text text-anchor="start" x="419" y="-220.1" font-family="Arial" font-size="8.00">INT FK</text>
<polygon fill="none" stroke="black" points="330,-199.5 330,-214.5 416,-214.5 416,-199.5 330,-199.5"/>
<text text-anchor="start" x="333" y="-205.1" font-family="Arial" font-size="8.00">id_almoxarifado</text>
<polygon fill="none" stroke="black" points="416,-199.5 416,-214.5 463,-214.5 463,-199.5 416,-199.5"/>
<text text-anchor="start" x="419" y="-205.1" font-family="Arial" font-size="8.00">INT FK</text>
<polygon fill="none" stroke="black" points="330,-184.5 330,-199.5 416,-199.5 416,-184.5 330,-184.5"/>
<text text-anchor="start" x="333" y="-190.1" font-family="Arial" font-size="8.00">id_responsavel</text>
<polygon fill="none" stroke="black" points="416,-184.5 416,-199.5 463,-199.5 463,-184.5 416,-184.5"/>
<text text-anchor="start" x="419" y="-190.1" font-family="Arial" font-size="8.00">INT FK</text>
<polygon fill="none" stroke="black" points="330,-169.5 330,-184.5 416,-184.5 416,-169.5 330,-169.5"/>
<text text-anchor="start" x="333" y="-175.1" font-family="Arial" font-size="8.00">id_parceiro</text>
<polygon fill="none" stroke="black" points="416,-169.5 416,-184.5 463,-184.5 463,-169.5 416,-169.5"/>
<text text-anchor="start" x="419" y="-175.1" font-family="Arial" font-size="8.00">INT FK</text>
<polygon fill="none" stroke="black" points="330,-154.5 330,-169.5 416,-169.5 416,-154.5 330,-154.5"/>
<text text-anchor="start" x="333" y="-160.1" font-family="Arial" font-size="8.00">data</text>
<polygon fill="none" stroke="black" points="416,-154.5 416,-169.5 463,-169.5 463,-154.5 416,-154.5"/>
<text text-anchor="start" x="419" y="-160.1" font-family="Arial" font-size="8.00">DATETIME</text>
<polygon fill="none" stroke="black" points="328.5,-154 328.5,-261 463.5,-261 463.5,-154 328.5,-154"/>
</g>
<!-- material_parceiro&#45;&gt;material_transacao -->
<g id="edge5" class="edge">
<title>material_parceiro&#45;&gt;material_transacao</title>
<path fill="none" stroke="black" d="M110.21,-337.24C157.74,-313.67 194.18,-297.1 313.77,-243.98"/>
<polygon fill="black" stroke="black" points="314.87,-246.18 320.27,-241.1 312.88,-241.7 314.87,-246.18"/>
<text text-anchor="middle" x="208.8" y="-290.55" font-family="Arial" font-size="7.00">1:N</text>
</g>
<!-- material_tipo_movimentacao -->
<g id="node2" class="node">
<title>material_tipo_movimentacao</title>
<polygon fill="#ffffff" stroke="transparent" points="154,-334 154,-396 288,-396 288,-334 154,-334"/>
<polygon fill="#4a90d9" stroke="transparent" points="155,-380 155,-395 287,-395 287,-380 155,-380"/>
<polygon fill="none" stroke="black" points="155,-380 155,-395 287,-395 287,-380 155,-380"/>
<text text-anchor="start" x="164.5" y="-386.6" font-family="Arial" font-weight="bold" font-size="8.00">material_tipo_movimentacao</text>
<polygon fill="none" stroke="black" points="155,-365 155,-380 241,-380 241,-365 155,-365"/>
<text text-anchor="start" x="158" y="-370.6" font-family="Arial" font-size="8.00">id_tipo_movimentacao</text>
<polygon fill="none" stroke="black" points="241,-365 241,-380 287,-380 287,-365 241,-365"/>
<text text-anchor="start" x="244" y="-370.6" font-family="Arial" font-size="8.00">INT PK</text>
<polygon fill="none" stroke="black" points="155,-350 155,-365 241,-365 241,-350 155,-350"/>
<text text-anchor="start" x="158" y="-355.6" font-family="Arial" font-size="8.00">nome</text>
<polygon fill="none" stroke="black" points="241,-350 241,-365 287,-365 287,-350 241,-350"/>
<text text-anchor="start" x="244" y="-355.6" font-family="Arial" font-size="8.00">VARCHAR</text>
<polygon fill="none" stroke="black" points="155,-335 155,-350 241,-350 241,-335 155,-335"/>
<text text-anchor="start" x="158" y="-340.6" font-family="Arial" font-size="8.00">tipo</text>
<polygon fill="none" stroke="black" points="241,-335 241,-350 287,-350 287,-335 241,-335"/>
<text text-anchor="start" x="244" y="-340.6" font-family="Arial" font-size="8.00">ENUM</text>
<polygon fill="none" stroke="black" points="154,-334 154,-396 288,-396 288,-334 154,-334"/>
</g>
<!-- material_tipo_movimentacao&#45;&gt;material_transacao -->
<g id="edge3" class="edge">
<title>material_tipo_movimentacao&#45;&gt;material_transacao</title>
<path fill="none" stroke="black" d="M254.43,-329.92C270.78,-313.53 287.23,-298.83 321.4,-269.96"/>
<polygon fill="black" stroke="black" points="323.27,-271.59 327.04,-265.2 320.11,-267.84 323.27,-271.59"/>
<text text-anchor="middle" x="284.06" y="-299.22" font-family="Arial" font-size="7.00">1:N</text>
</g>
<!-- material_categoria -->
<g id="node3" class="node">
<title>material_categoria</title>
<polygon fill="#ffffff" stroke="transparent" points="594,-341.5 594,-388.5 692,-388.5 692,-341.5 594,-341.5"/>
<polygon fill="#4a90d9" stroke="transparent" points="595,-372 595,-387 691,-387 691,-372 595,-372"/>
<polygon fill="none" stroke="black" points="595,-372 595,-387 691,-387 691,-372 595,-372"/>
<text text-anchor="start" x="606.5" y="-378.6" font-family="Arial" font-weight="bold" font-size="8.00">material_categoria</text>
<polygon fill="none" stroke="black" points="595,-357 595,-372 645,-372 645,-357 595,-357"/>
<text text-anchor="start" x="598" y="-362.6" font-family="Arial" font-size="8.00">id_categoria</text>
<polygon fill="none" stroke="black" points="645,-357 645,-372 691,-372 691,-357 645,-357"/>
<text text-anchor="start" x="648" y="-362.6" font-family="Arial" font-size="8.00">INT PK</text>
<polygon fill="none" stroke="black" points="595,-342 595,-357 645,-357 645,-342 595,-342"/>
<text text-anchor="start" x="598" y="-347.6" font-family="Arial" font-size="8.00">descricao</text>
<polygon fill="none" stroke="black" points="645,-342 645,-357 691,-357 691,-342 645,-342"/>
<text text-anchor="start" x="648" y="-347.6" font-family="Arial" font-size="8.00">VARCHAR</text>
<polygon fill="none" stroke="black" points="594,-341.5 594,-388.5 692,-388.5 692,-341.5 594,-341.5"/>
</g>
<!-- material_produto -->
<g id="node5" class="node">
<title>material_produto</title>
<polygon fill="#ffffff" stroke="transparent" points="594,-154 594,-261 692,-261 692,-154 594,-154"/>
<polygon fill="#4a90d9" stroke="transparent" points="595,-244.5 595,-259.5 691,-259.5 691,-244.5 595,-244.5"/>
<polygon fill="none" stroke="black" points="595,-244.5 595,-259.5 691,-259.5 691,-244.5 595,-244.5"/>
<text text-anchor="start" x="609" y="-251.1" font-family="Arial" font-weight="bold" font-size="8.00">material_produto</text>
<polygon fill="none" stroke="black" points="595,-229.5 595,-244.5 645,-244.5 645,-229.5 595,-229.5"/>
<text text-anchor="start" x="598" y="-235.1" font-family="Arial" font-size="8.00">id_produto</text>
<polygon fill="none" stroke="black" points="645,-229.5 645,-244.5 691,-244.5 691,-229.5 645,-229.5"/>
<text text-anchor="start" x="648" y="-235.1" font-family="Arial" font-size="8.00">INT PK</text>
<polygon fill="none" stroke="black" points="595,-214.5 595,-229.5 645,-229.5 645,-214.5 595,-214.5"/>
<text text-anchor="start" x="598" y="-220.1" font-family="Arial" font-size="8.00">id_categoria</text>
<polygon fill="none" stroke="black" points="645,-214.5 645,-229.5 691,-229.5 691,-214.5 645,-214.5"/>
<text text-anchor="start" x="648" y="-220.1" font-family="Arial" font-size="8.00">INT FK</text>
<polygon fill="none" stroke="black" points="595,-199.5 595,-214.5 645,-214.5 645,-199.5 595,-199.5"/>
<text text-anchor="start" x="598" y="-205.1" font-family="Arial" font-size="8.00">id_unidade</text>
<polygon fill="none" stroke="black" points="645,-199.5 645,-214.5 691,-214.5 691,-199.5 645,-199.5"/>
<text text-anchor="start" x="648" y="-205.1" font-family="Arial" font-size="8.00">INT FK</text>
<polygon fill="none" stroke="black" points="595,-184.5 595,-199.5 645,-199.5 645,-184.5 595,-184.5"/>
<text text-anchor="start" x="598" y="-190.1" font-family="Arial" font-size="8.00">descricao</text>
<polygon fill="none" stroke="black" points="645,-184.5 645,-199.5 691,-199.5 691,-184.5 645,-184.5"/>
<text text-anchor="start" x="648" y="-190.1" font-family="Arial" font-size="8.00">VARCHAR</text>
<polygon fill="none" stroke="black" points="595,-169.5 595,-184.5 645,-184.5 645,-169.5 595,-169.5"/>
<text text-anchor="start" x="598" y="-175.1" font-family="Arial" font-size="8.00">codigo</text>
<polygon fill="none" stroke="black" points="645,-169.5 645,-184.5 691,-184.5 691,-169.5 645,-169.5"/>
<text text-anchor="start" x="648" y="-175.1" font-family="Arial" font-size="8.00">VARCHAR</text>
<polygon fill="none" stroke="black" points="595,-154.5 595,-169.5 645,-169.5 645,-154.5 595,-154.5"/>
<text text-anchor="start" x="598" y="-160.1" font-family="Arial" font-size="8.00">oculto</text>
<polygon fill="none" stroke="black" points="645,-154.5 645,-169.5 691,-169.5 691,-154.5 645,-154.5"/>
<text text-anchor="start" x="648" y="-160.1" font-family="Arial" font-size="8.00">BOOLEAN</text>
<polygon fill="none" stroke="black" points="594,-154 594,-261 692,-261 692,-154 594,-154"/>
</g>
<!-- material_categoria&#45;&gt;material_produto -->
<g id="edge1" class="edge">
<title>material_categoria&#45;&gt;material_produto</title>
<path fill="none" stroke="black" d="M654.73,-337.45C665.28,-311.23 667.89,-296.65 662.56,-271.92"/>
<polygon fill="black" stroke="black" points="664.93,-271.28 660.94,-265.03 660.16,-272.4 664.93,-271.28"/>
<text text-anchor="middle" x="658.87" y="-304.18" font-family="Arial" font-size="7.00">1:N</text>
</g>
<!-- material_unidade -->
<g id="node4" class="node">
<title>material_unidade</title>
<polygon fill="#ffffff" stroke="transparent" points="744,-341.5 744,-388.5 838,-388.5 838,-341.5 744,-341.5"/>
<polygon fill="#4a90d9" stroke="transparent" points="745,-372 745,-387 837,-387 837,-372 745,-372"/>
<polygon fill="none" stroke="black" points="745,-372 745,-387 837,-387 837,-372 745,-372"/>
<text text-anchor="start" x="757" y="-378.6" font-family="Arial" font-weight="bold" font-size="8.00">material_unidade</text>
<polygon fill="none" stroke="black" points="745,-357 745,-372 791,-372 791,-357 745,-357"/>
<text text-anchor="start" x="748" y="-362.6" font-family="Arial" font-size="8.00">id_unidade</text>
<polygon fill="none" stroke="black" points="791,-357 791,-372 837,-372 837,-357 791,-357"/>
<text text-anchor="start" x="794" y="-362.6" font-family="Arial" font-size="8.00">INT PK</text>
<polygon fill="none" stroke="black" points="745,-342 745,-357 791,-357 791,-342 745,-342"/>
<text text-anchor="start" x="748" y="-347.6" font-family="Arial" font-size="8.00">descricao</text>
<polygon fill="none" stroke="black" points="791,-342 791,-357 837,-357 837,-342 791,-342"/>
<text text-anchor="start" x="794" y="-347.6" font-family="Arial" font-size="8.00">VARCHAR</text>
<polygon fill="none" stroke="black" points="744,-341.5 744,-388.5 838,-388.5 838,-341.5 744,-341.5"/>
</g>
<!-- material_unidade&#45;&gt;material_produto -->
<g id="edge2" class="edge">
<title>material_unidade&#45;&gt;material_produto</title>
<path fill="none" stroke="black" d="M777.53,-337.38C761.71,-306.57 749.22,-291.87 705.71,-256.72"/>
<polygon fill="black" stroke="black" points="707.24,-254.81 700.25,-252.33 704.17,-258.63 707.24,-254.81"/>
<text text-anchor="middle" x="737.97" y="-292.55" font-family="Arial" font-size="7.00">1:N</text>
</g>
<!-- material_transacao_produto -->
<g id="node8" class="node">
<title>material_transacao_produto</title>
<polygon fill="#ffffff" stroke="transparent" points="454,-4 454,-96 584,-96 584,-4 454,-4"/>
<polygon fill="#4a90d9" stroke="transparent" points="455,-80 455,-95 583,-95 583,-80 455,-80"/>
<polygon fill="none" stroke="black" points="455,-80 455,-95 583,-95 583,-80 455,-80"/>
<text text-anchor="start" x="463" y="-86.6" font-family="Arial" font-weight="bold" font-size="8.00">material_transacao_produto</text>
<polygon fill="none" stroke="black" points="455,-65 455,-80 540,-80 540,-65 455,-65"/>
<text text-anchor="start" x="458" y="-70.6" font-family="Arial" font-size="8.00">id_transacao_produto</text>
<polygon fill="none" stroke="black" points="540,-65 540,-80 583,-80 583,-65 540,-65"/>
<text text-anchor="start" x="543" y="-70.6" font-family="Arial" font-size="8.00">INT PK</text>
<polygon fill="none" stroke="black" points="455,-50 455,-65 540,-65 540,-50 455,-50"/>
<text text-anchor="start" x="458" y="-55.6" font-family="Arial" font-size="8.00">id_transacao</text>
<polygon fill="none" stroke="black" points="540,-50 540,-65 583,-65 583,-50 540,-50"/>
<text text-anchor="start" x="543" y="-55.6" font-family="Arial" font-size="8.00">INT FK</text>
<polygon fill="none" stroke="black" points="455,-35 455,-50 540,-50 540,-35 455,-35"/>
<text text-anchor="start" x="458" y="-40.6" font-family="Arial" font-size="8.00">id_produto</text>
<polygon fill="none" stroke="black" points="540,-35 540,-50 583,-50 583,-35 540,-35"/>
<text text-anchor="start" x="543" y="-40.6" font-family="Arial" font-size="8.00">INT FK</text>
<polygon fill="none" stroke="black" points="455,-20 455,-35 540,-35 540,-20 455,-20"/>
<text text-anchor="start" x="458" y="-25.6" font-family="Arial" font-size="8.00">quantidade</text>
<polygon fill="none" stroke="black" points="540,-20 540,-35 583,-35 583,-20 540,-20"/>
<text text-anchor="start" x="543" y="-25.6" font-family="Arial" font-size="8.00">INT</text>
<polygon fill="none" stroke="black" points="455,-5 455,-20 540,-20 540,-5 455,-5"/>
<text text-anchor="start" x="458" y="-10.6" font-family="Arial" font-size="8.00">valor_unitario</text>
<polygon fill="none" stroke="black" points="540,-5 540,-20 583,-20 583,-5 540,-5"/>
<text text-anchor="start" x="543" y="-10.6" font-family="Arial" font-size="8.00">DECIMAL</text>
<polygon fill="none" stroke="black" points="454,-4 454,-96 584,-96 584,-4 454,-4"/>
</g>
<!-- material_produto&#45;&gt;material_transacao_produto -->
<g id="edge8" class="edge">
<title>material_produto&#45;&gt;material_transacao_produto</title>
<path fill="none" stroke="black" d="M626,-149.67C618.82,-129.87 610.97,-116.75 597.39,-103.88"/>
<polygon fill="black" stroke="black" points="598.96,-102 592.12,-99.14 595.68,-105.65 598.96,-102"/>
<text text-anchor="middle" x="606.79" y="-124.53" font-family="Arial" font-size="7.00">1:N</text>
</g>
<!-- material_almoxarifado -->
<g id="node6" class="node">
<title>material_almoxarifado</title>
<polygon fill="#ffffff" stroke="transparent" points="340.5,-341.5 340.5,-388.5 451.5,-388.5 451.5,-341.5 340.5,-341.5"/>
<polygon fill="#4a90d9" stroke="transparent" points="342,-372 342,-387 451,-387 451,-372 342,-372"/>
<polygon fill="none" stroke="black" points="342,-372 342,-387 451,-387 451,-372 342,-372"/>
<text text-anchor="start" x="353" y="-378.6" font-family="Arial" font-weight="bold" font-size="8.00">material_almoxarifado</text>
<polygon fill="none" stroke="black" points="342,-357 342,-372 405,-372 405,-357 342,-357"/>
<text text-anchor="start" x="345" y="-362.6" font-family="Arial" font-size="8.00">id_almoxarifado</text>
<polygon fill="none" stroke="black" points="405,-357 405,-372 451,-372 451,-357 405,-357"/>
<text text-anchor="start" x="408" y="-362.6" font-family="Arial" font-size="8.00">INT PK</text>
<polygon fill="none" stroke="black" points="342,-342 342,-357 405,-357 405,-342 342,-342"/>
<text text-anchor="start" x="345" y="-347.6" font-family="Arial" font-size="8.00">descricao</text>
<polygon fill="none" stroke="black" points="405,-342 405,-357 451,-357 451,-342 405,-342"/>
<text text-anchor="start" x="408" y="-347.6" font-family="Arial" font-size="8.00">VARCHAR</text>
<polygon fill="none" stroke="black" points="340.5,-341.5 340.5,-388.5 451.5,-388.5 451.5,-341.5 340.5,-341.5"/>
</g>
<!-- material_almoxarifado&#45;&gt;material_transacao -->
<g id="edge4" class="edge">
<title>material_almoxarifado&#45;&gt;material_transacao</title>
<path fill="none" stroke="black" d="M390.63,-337.43C387.75,-319.44 387.58,-304.99 390.14,-272.41"/>
<polygon fill="black" stroke="black" points="392.61,-272.35 390.73,-265.17 387.72,-271.95 392.61,-272.35"/>
<text text-anchor="middle" x="382.45" y="-303.39" font-family="Arial" font-size="7.00">1:N</text>
</g>
<!-- material_transacao&#45;&gt;material_transacao_produto -->
<g id="edge7" class="edge">
<title>material_transacao&#45;&gt;material_transacao_produto</title>
<path fill="none" stroke="black" d="M434.98,-149.72C448.05,-130.55 457.68,-116.86 465.93,-105.97"/>
<polygon fill="black" stroke="black" points="468.05,-107.23 470.39,-100.19 464.17,-104.24 468.05,-107.23"/>
<text text-anchor="middle" x="446.5" y="-126.8" font-family="Arial" font-size="7.00">1:N</text>
</g>
<!-- pessoa -->
<g id="node9" class="node">
<title>pessoa</title>
<text text-anchor="middle" x="523" y="-363.1" font-family="Arial" font-size="8.00">pessoa</text>
</g>
<!-- pessoa&#45;&gt;material_transacao -->
<g id="edge6" class="edge">
<title>pessoa&#45;&gt;material_transacao</title>
<path fill="none" stroke="black" d="M502.91,-346.63C482.23,-327.2 470.61,-313.39 440.58,-271.12"/>
<polygon fill="black" stroke="black" points="442.47,-269.55 436.42,-265.26 438.47,-272.38 442.47,-269.55"/>
<text text-anchor="middle" x="461.57" y="-310.26" font-family="Arial" font-size="7.00">1:N</text>
</g>
</g>
</svg>
