<?xml version="1.0" encoding="UTF-8" standalone="no"?>
<!DOCTYPE svg PUBLIC "-//W3C//DTD SVG 1.1//EN"
 "http://www.w3.org/Graphics/SVG/1.1/DTD/svg11.dtd">
<!-- Generated by graphviz version 2.43.0 (0)
 -->
<!-- Title: MER_Pet Pages: 1 -->
<svg width="650pt" height="768pt"
 viewBox="0.00 0.00 650.00 768.00" xmlns="http://www.w3.org/2000/svg" xmlns:xlink="http://www.w3.org/1999/xlink">
<g id="graph0" class="graph" transform="scale(1 1) rotate(0) translate(4 764)">
<title>MER_Pet</title>
<polygon fill="white" stroke="transparent" points="-4,4 -4,-764 646,-764 646,4 -4,4"/>
<!-- pet_especie -->
<g id="node1" class="node">
<title>pet_especie</title>
<polygon fill="#ffffff" stroke="transparent" points="81.5,-694 81.5,-741 189.5,-741 189.5,-694 81.5,-694"/>
<polygon fill="#4a90d9" stroke="transparent" points="82.5,-724.5 82.5,-739.5 188.5,-739.5 188.5,-724.5 82.5,-724.5"/>
<polygon fill="none" stroke="black" points="82.5,-724.5 82.5,-739.5 188.5,-739.5 188.5,-724.5 82.5,-724.5"/>
<text text-anchor="start" x="111.5" y="-731.1" font-family="Arial" font-weight="bold" font-size="8.00">pet_especie</text>
<polygon fill="none" stroke="black" points="82.5,-709.5 82.5,-724.5 142.5,-724.5 142.5,-709.5 82.5,-709.5"/>
<text text-anchor="start" x="85.5" y="-715.1" font-family="Arial" font-size="8.00">id_pet_especie</text>
<polygon fill="none" stroke="black" points="142.5,-709.5 142.5,-724.5 188.5,-724.5 188.5,-709.5 142.5,-709.5"/>
<text text-anchor="start" x="145.5" y="-715.1" font-family="Arial" font-size="8.00">INT PK</text>
<polygon fill="none" stroke="black" points="82.5,-694.5 82.5,-709.5 142.5,-709.5 142.5,-694.5 82.5,-694.5"/>
<text text-anchor="start" x="85.5" y="-700.1" font-family="Arial" font-size="8.00">descricao</text>
<polygon fill="none" stroke="black" points="142.5,-694.5 142.5,-709.5 188.5,-709.5 188.5,-694.5 142.5,-694.5"/>
<text text-anchor="start" x="145.5" y="-700.1" font-family="Arial" font-size="8.00">VARCHAR</text>
<polygon fill="none" stroke="black" points="81.5,-694 81.5,-741 189.5,-741 189.5,-694 81.5,-694"/>
</g>
<!-- pet -->
<g id="node4" class="node">
<title>pet</title>
<polygon fill="#ffffff" stroke="transparent" points="216.5,-454 216.5,-621 364.5,-621 364.5,-454 216.5,-454"/>
<polygon fill="#4a90d9" stroke="transparent" points="217.5,-604.5 217.5,-619.5 363.5,-619.5 363.5,-604.5 217.5,-604.5"/>
<polygon fill="none" stroke="black" points="217.5,-604.5 217.5,-619.5 363.5,-619.5 363.5,-604.5 217.5,-604.5"/>
<text text-anchor="start" x="284" y="-611.1" font-family="Arial" font-weight="bold" font-size="8.00">pet</text>
<polygon fill="none" stroke="black" points="217.5,-589.5 217.5,-604.5 317.5,-604.5 317.5,-589.5 217.5,-589.5"/>
<text text-anchor="start" x="220.5" y="-595.1" font-family="Arial" font-size="8.00">id_pet</text>
<polygon fill="none" stroke="black" points="317.5,-589.5 317.5,-604.5 363.5,-604.5 363.5,-589.5 317.5,-589.5"/>
<text text-anchor="start" x="320.5" y="-595.1" font-family="Arial" font-size="8.00">INT PK</text>
<polygon fill="none" stroke="black" points="217.5,-574.5 217.5,-589.5 317.5,-589.5 317.5,-574.5 217.5,-574.5"/>
<text text-anchor="start" x="220.5" y="-580.1" font-family="Arial" font-size="8.00">nome</text>
<polygon fill="none" stroke="black" points="317.5,-574.5 317.5,-589.5 363.5,-589.5 363.5,-574.5 317.5,-574.5"/>
<text text-anchor="start" x="320.5" y="-580.1" font-family="Arial" font-size="8.00">VARCHAR</text>
<polygon fill="none" stroke="black" points="217.5,-559.5 217.5,-574.5 317.5,-574.5 317.5,-559.5 217.5,-559.5"/>
<text text-anchor="start" x="220.5" y="-565.1" font-family="Arial" font-size="8.00">data_nascimento</text>
<polygon fill="none" stroke="black" points="317.5,-559.5 317.5,-574.5 363.5,-574.5 363.5,-559.5 317.5,-559.5"/>
<text text-anchor="start" x="320.5" y="-565.1" font-family="Arial" font-size="8.00">DATE</text>
<polygon fill="none" stroke="black" points="217.5,-544.5 217.5,-559.5 317.5,-559.5 317.5,-544.5 217.5,-544.5"/>
<text text-anchor="start" x="220.5" y="-550.1" font-family="Arial" font-size="8.00">data_acolhimento</text>
<polygon fill="none" stroke="black" points="317.5,-544.5 317.5,-559.5 363.5,-559.5 363.5,-544.5 317.5,-544.5"/>
<text text-anchor="start" x="320.5" y="-550.1" font-family="Arial" font-size="8.00">DATE</text>
<polygon fill="none" stroke="black" points="217.5,-529.5 217.5,-544.5 317.5,-544.5 317.5,-529.5 217.5,-529.5"/>
<text text-anchor="start" x="220.5" y="-535.1" font-family="Arial" font-size="8.00">sexo</text>
<polygon fill="none" stroke="black" points="317.5,-529.5 317.5,-544.5 363.5,-544.5 363.5,-529.5 317.5,-529.5"/>
<text text-anchor="start" x="320.5" y="-535.1" font-family="Arial" font-size="8.00">CHAR</text>
<polygon fill="none" stroke="black" points="217.5,-514.5 217.5,-529.5 317.5,-529.5 317.5,-514.5 217.5,-514.5"/>
<text text-anchor="start" x="220.5" y="-520.1" font-family="Arial" font-size="8.00">caracteristicas_especificas</text>
<polygon fill="none" stroke="black" points="317.5,-514.5 317.5,-529.5 363.5,-529.5 363.5,-514.5 317.5,-514.5"/>
<text text-anchor="start" x="320.5" y="-520.1" font-family="Arial" font-size="8.00">VARCHAR</text>
<polygon fill="none" stroke="black" points="217.5,-499.5 217.5,-514.5 317.5,-514.5 317.5,-499.5 217.5,-499.5"/>
<text text-anchor="start" x="220.5" y="-505.1" font-family="Arial" font-size="8.00">id_pet_foto</text>
<polygon fill="none" stroke="black" points="317.5,-499.5 317.5,-514.5 363.5,-514.5 363.5,-499.5 317.5,-499.5"/>
<text text-anchor="start" x="320.5" y="-505.1" font-family="Arial" font-size="8.00">INT FK</text>
<polygon fill="none" stroke="black" points="217.5,-484.5 217.5,-499.5 317.5,-499.5 317.5,-484.5 217.5,-484.5"/>
<text text-anchor="start" x="220.5" y="-490.1" font-family="Arial" font-size="8.00">id_pet_especie</text>
<polygon fill="none" stroke="black" points="317.5,-484.5 317.5,-499.5 363.5,-499.5 363.5,-484.5 317.5,-484.5"/>
<text text-anchor="start" x="320.5" y="-490.1" font-family="Arial" font-size="8.00">INT FK</text>
<polygon fill="none" stroke="black" points="217.5,-469.5 217.5,-484.5 317.5,-484.5 317.5,-469.5 217.5,-469.5"/>
<text text-anchor="start" x="220.5" y="-475.1" font-family="Arial" font-size="8.00">id_pet_raca</text>
<polygon fill="none" stroke="black" points="317.5,-469.5 317.5,-484.5 363.5,-484.5 363.5,-469.5 317.5,-469.5"/>
<text text-anchor="start" x="320.5" y="-475.1" font-family="Arial" font-size="8.00">INT FK</text>
<polygon fill="none" stroke="black" points="217.5,-454.5 217.5,-469.5 317.5,-469.5 317.5,-454.5 217.5,-454.5"/>
<text text-anchor="start" x="220.5" y="-460.1" font-family="Arial" font-size="8.00">cor</text>
<polygon fill="none" stroke="black" points="317.5,-454.5 317.5,-469.5 363.5,-469.5 363.5,-454.5 317.5,-454.5"/>
<text text-anchor="start" x="320.5" y="-460.1" font-family="Arial" font-size="8.00">ENUM</text>
<polygon fill="none" stroke="black" points="216.5,-454 216.5,-621 364.5,-621 364.5,-454 216.5,-454"/>
</g>
<!-- pet_especie&#45;&gt;pet -->
<g id="edge1" class="edge">
<title>pet_especie&#45;&gt;pet</title>
<path fill="none" stroke="black" d="M169.45,-689.77C186.84,-674.53 200.04,-659.99 222.34,-630.68"/>
<polygon fill="black" stroke="black" points="224.35,-632.1 226.62,-625.04 220.44,-629.14 224.35,-632.1"/>
<text text-anchor="middle" x="193.98" y="-661.12" font-family="Arial" font-size="7.00">1:N</text>
</g>
<!-- pet_raca -->
<g id="node2" class="node">
<title>pet_raca</title>
<polygon fill="#ffffff" stroke="transparent" points="242,-694 242,-741 339,-741 339,-694 242,-694"/>
<polygon fill="#4a90d9" stroke="transparent" points="243.5,-724.5 243.5,-739.5 338.5,-739.5 338.5,-724.5 243.5,-724.5"/>
<polygon fill="none" stroke="black" points="243.5,-724.5 243.5,-739.5 338.5,-739.5 338.5,-724.5 243.5,-724.5"/>
<text text-anchor="start" x="274" y="-731.1" font-family="Arial" font-weight="bold" font-size="8.00">pet_raca</text>
<polygon fill="none" stroke="black" points="243.5,-709.5 243.5,-724.5 292.5,-724.5 292.5,-709.5 243.5,-709.5"/>
<text text-anchor="start" x="246.5" y="-715.1" font-family="Arial" font-size="8.00">id_pet_raca</text>
<polygon fill="none" stroke="black" points="292.5,-709.5 292.5,-724.5 338.5,-724.5 338.5,-709.5 292.5,-709.5"/>
<text text-anchor="start" x="295.5" y="-715.1" font-family="Arial" font-size="8.00">INT PK</text>
<polygon fill="none" stroke="black" points="243.5,-694.5 243.5,-709.5 292.5,-709.5 292.5,-694.5 243.5,-694.5"/>
<text text-anchor="start" x="246.5" y="-700.1" font-family="Arial" font-size="8.00">descricao</text>
<polygon fill="none" stroke="black" points="292.5,-694.5 292.5,-709.5 338.5,-709.5 338.5,-694.5 292.5,-694.5"/>
<text text-anchor="start" x="295.5" y="-700.1" font-family="Arial" font-size="8.00">VARCHAR</text>
<polygon fill="none" stroke="black" points="242,-694 242,-741 339,-741 339,-694 242,-694"/>
</g>
<!-- pet_raca&#45;&gt;pet -->
<g id="edge2" class="edge">
<title>pet_raca&#45;&gt;pet</title>
<path fill="none" stroke="black" d="M288.36,-689.64C287.22,-672.25 286.92,-658.26 287.46,-632.5"/>
<polygon fill="black" stroke="black" points="289.92,-632.35 287.63,-625.3 285.02,-632.24 289.92,-632.35"/>
<text text-anchor="middle" x="281.21" y="-660.16" font-family="Arial" font-size="7.00">1:N</text>
</g>
<!-- pet_foto -->
<g id="node3" class="node">
<title>pet_foto</title>
<polygon fill="#ffffff" stroke="transparent" points="391,-679 391,-756 542,-756 542,-679 391,-679"/>
<polygon fill="#4a90d9" stroke="transparent" points="392.5,-739.5 392.5,-754.5 541.5,-754.5 541.5,-739.5 392.5,-739.5"/>
<polygon fill="none" stroke="black" points="392.5,-739.5 392.5,-754.5 541.5,-754.5 541.5,-739.5 392.5,-739.5"/>
<text text-anchor="start" x="450" y="-746.1" font-family="Arial" font-weight="bold" font-size="8.00">pet_foto</text>
<polygon fill="none" stroke="black" points="392.5,-724.5 392.5,-739.5 495.5,-739.5 495.5,-724.5 392.5,-724.5"/>
<text text-anchor="start" x="395.5" y="-730.1" font-family="Arial" font-size="8.00">id_pet_foto</text>
<polygon fill="none" stroke="black" points="495.5,-724.5 495.5,-739.5 541.5,-739.5 541.5,-724.5 495.5,-724.5"/>
<text text-anchor="start" x="498.5" y="-730.1" font-family="Arial" font-size="8.00">INT PK</text>
<polygon fill="none" stroke="black" points="392.5,-709.5 392.5,-724.5 495.5,-724.5 495.5,-709.5 392.5,-709.5"/>
<text text-anchor="start" x="395.5" y="-715.1" font-family="Arial" font-size="8.00">arquivo_foto_pet</text>
<polygon fill="none" stroke="black" points="495.5,-709.5 495.5,-724.5 541.5,-724.5 541.5,-709.5 495.5,-709.5"/>
<text text-anchor="start" x="498.5" y="-715.1" font-family="Arial" font-size="8.00">VARCHAR</text>
<polygon fill="none" stroke="black" points="392.5,-694.5 392.5,-709.5 495.5,-709.5 495.5,-694.5 392.5,-694.5"/>
<text text-anchor="start" x="395.5" y="-700.1" font-family="Arial" font-size="8.00">arquivo_foto_pet_nome</text>
<polygon fill="none" stroke="black" points="495.5,-694.5 495.5,-709.5 541.5,-709.5 541.5,-694.5 495.5,-694.5"/>
<text text-anchor="start" x="498.5" y="-700.1" font-family="Arial" font-size="8.00">VARCHAR</text>
<polygon fill="none" stroke="black" points="392.5,-679.5 392.5,-694.5 495.5,-694.5 495.5,-679.5 392.5,-679.5"/>
<text text-anchor="start" x="395.5" y="-685.1" font-family="Arial" font-size="8.00">arquivo_foto_pet_extensao</text>
<polygon fill="none" stroke="black" points="495.5,-679.5 495.5,-694.5 541.5,-694.5 541.5,-679.5 495.5,-679.5"/>
<text text-anchor="start" x="498.5" y="-685.1" font-family="Arial" font-size="8.00">VARCHAR</text>
<polygon fill="none" stroke="black" points="391,-679 391,-756 542,-756 542,-679 391,-679"/>
</g>
<!-- pet_foto&#45;&gt;pet -->
<g id="edge3" class="edge">
<title>pet_foto&#45;&gt;pet</title>
<path fill="none" stroke="black" d="M398.25,-674.91C386,-664.2 374.05,-650.81 358.43,-630.67"/>
<polygon fill="black" stroke="black" points="360.36,-629.17 354.15,-625.11 356.47,-632.15 360.36,-629.17"/>
<text text-anchor="middle" x="368.98" y="-653.46" font-family="Arial" font-size="7.00">1:N</text>
</g>
<!-- pet_adocao -->
<g id="node5" class="node">
<title>pet_adocao</title>
<polygon fill="#ffffff" stroke="transparent" points="8,-319 8,-396 95,-396 95,-319 8,-319"/>
<polygon fill="#4a90d9" stroke="transparent" points="9.5,-379.5 9.5,-394.5 94.5,-394.5 94.5,-379.5 9.5,-379.5"/>
<polygon fill="none" stroke="black" points="9.5,-379.5 9.5,-394.5 94.5,-394.5 94.5,-379.5 9.5,-379.5"/>
<text text-anchor="start" x="28.5" y="-386.1" font-family="Arial" font-weight="bold" font-size="8.00">pet_adocao</text>
<polygon fill="none" stroke="black" points="9.5,-364.5 9.5,-379.5 62.5,-379.5 62.5,-364.5 9.5,-364.5"/>
<text text-anchor="start" x="12.5" y="-370.1" font-family="Arial" font-size="8.00">id_adocao</text>
<polygon fill="none" stroke="black" points="62.5,-364.5 62.5,-379.5 94.5,-379.5 94.5,-364.5 62.5,-364.5"/>
<text text-anchor="start" x="65.5" y="-370.1" font-family="Arial" font-size="8.00">INT PK</text>
<polygon fill="none" stroke="black" points="9.5,-349.5 9.5,-364.5 62.5,-364.5 62.5,-349.5 9.5,-349.5"/>
<text text-anchor="start" x="12.5" y="-355.1" font-family="Arial" font-size="8.00">id_pessoa</text>
<polygon fill="none" stroke="black" points="62.5,-349.5 62.5,-364.5 94.5,-364.5 94.5,-349.5 62.5,-349.5"/>
<text text-anchor="start" x="65.5" y="-355.1" font-family="Arial" font-size="8.00">INT FK</text>
<polygon fill="none" stroke="black" points="9.5,-334.5 9.5,-349.5 62.5,-349.5 62.5,-334.5 9.5,-334.5"/>
<text text-anchor="start" x="12.5" y="-340.1" font-family="Arial" font-size="8.00">id_pet</text>
<polygon fill="none" stroke="black" points="62.5,-334.5 62.5,-349.5 94.5,-349.5 94.5,-334.5 62.5,-334.5"/>
<text text-anchor="start" x="65.5" y="-340.1" font-family="Arial" font-size="8.00">INT FK</text>
<polygon fill="none" stroke="black" points="9.5,-319.5 9.5,-334.5 62.5,-334.5 62.5,-319.5 9.5,-319.5"/>
<text text-anchor="start" x="12.5" y="-325.1" font-family="Arial" font-size="8.00">data_adocao</text>
<polygon fill="none" stroke="black" points="62.5,-319.5 62.5,-334.5 94.5,-334.5 94.5,-319.5 62.5,-319.5"/>
<text text-anchor="start" x="65.5" y="-325.1" font-family="Arial" font-size="8.00">DATE</text>
<polygon fill="none" stroke="black" points="8,-319 8,-396 95,-396 95,-319 8,-319"/>
</g>
<!-- pet&#45;&gt;pet_adocao -->
<g id="edge5" class="edge">
<title>pet&#45;&gt;pet_adocao</title>
<path fill="none" stroke="black" d="M208.34,-505.99C133.71,-475.83 111.89,-458.48 79.95,-406.53"/>
<polygon fill="black" stroke="black" points="81.93,-405.08 76.21,-400.37 77.75,-407.63 81.93,-405.08"/>
<text text-anchor="middle" x="122.11" y="-466.81" font-family="Arial" font-size="7.00">1:N</text>
</g>
<!-- pet_ficha_medica -->
<g id="node6" class="node">
<title>pet_ficha_medica</title>
<polygon fill="#ffffff" stroke="transparent" points="316,-319 316,-396 455,-396 455,-319 316,-319"/>
<polygon fill="#4a90d9" stroke="transparent" points="317.5,-379.5 317.5,-394.5 454.5,-394.5 454.5,-379.5 317.5,-379.5"/>
<polygon fill="none" stroke="black" points="317.5,-379.5 317.5,-394.5 454.5,-394.5 454.5,-379.5 317.5,-379.5"/>
<text text-anchor="start" x="351" y="-386.1" font-family="Arial" font-weight="bold" font-size="8.00">pet_ficha_medica</text>
<polygon fill="none" stroke="black" points="317.5,-364.5 317.5,-379.5 408.5,-379.5 408.5,-364.5 317.5,-364.5"/>
<text text-anchor="start" x="320.5" y="-370.1" font-family="Arial" font-size="8.00">id_ficha_medica</text>
<polygon fill="none" stroke="black" points="408.5,-364.5 408.5,-379.5 454.5,-379.5 454.5,-364.5 408.5,-364.5"/>
<text text-anchor="start" x="411.5" y="-370.1" font-family="Arial" font-size="8.00">INT PK</text>
<polygon fill="none" stroke="black" points="317.5,-349.5 317.5,-364.5 408.5,-364.5 408.5,-349.5 317.5,-349.5"/>
<text text-anchor="start" x="320.5" y="-355.1" font-family="Arial" font-size="8.00">id_pet</text>
<polygon fill="none" stroke="black" points="408.5,-349.5 408.5,-364.5 454.5,-364.5 454.5,-349.5 408.5,-349.5"/>
<text text-anchor="start" x="411.5" y="-355.1" font-family="Arial" font-size="8.00">INT FK</text>
<polygon fill="none" stroke="black" points="317.5,-334.5 317.5,-349.5 408.5,-349.5 408.5,-334.5 317.5,-334.5"/>
<text text-anchor="start" x="320.5" y="-340.1" font-family="Arial" font-size="8.00">castrado</text>
<polygon fill="none" stroke="black" points="408.5,-334.5 408.5,-349.5 454.5,-349.5 454.5,-334.5 408.5,-334.5"/>
<text text-anchor="start" x="411.5" y="-340.1" font-family="Arial" font-size="8.00">CHAR</text>
<polygon fill="none" stroke="black" points="317.5,-319.5 317.5,-334.5 408.5,-334.5 408.5,-319.5 317.5,-319.5"/>
<text text-anchor="start" x="320.5" y="-325.1" font-family="Arial" font-size="8.00">necessidades_especiais</text>
<polygon fill="none" stroke="black" points="408.5,-319.5 408.5,-334.5 454.5,-334.5 454.5,-319.5 408.5,-319.5"/>
<text text-anchor="start" x="411.5" y="-325.1" font-family="Arial" font-size="8.00">VARCHAR</text>
<polygon fill="none" stroke="black" points="316,-319 316,-396 455,-396 455,-319 316,-319"/>
</g>
<!-- pet&#45;&gt;pet_ficha_medica -->
<g id="edge6" class="edge">
<title>pet&#45;&gt;pet_ficha_medica</title>
<path fill="none" stroke="black" d="M357.17,-449.86C361.35,-438.35 365.74,-424.54 370.89,-407.37"/>
<polygon fill="black" stroke="black" points="373.33,-407.76 372.98,-400.36 368.64,-406.36 373.33,-407.76"/>
<text text-anchor="middle" x="360.39" y="-427.73" font-family="Arial" font-size="7.00">1:1</text>
</g>
<!-- pet_exame -->
<g id="node8" class="node">
<title>pet_exame</title>
<polygon fill="#ffffff" stroke="transparent" points="153.5,-139 153.5,-261 271.5,-261 271.5,-139 153.5,-139"/>
<polygon fill="#4a90d9" stroke="transparent" points="154.5,-245 154.5,-260 270.5,-260 270.5,-245 154.5,-245"/>
<polygon fill="none" stroke="black" points="154.5,-245 154.5,-260 270.5,-260 270.5,-245 154.5,-245"/>
<text text-anchor="start" x="191" y="-251.6" font-family="Arial" font-weight="bold" font-size="8.00">pet_exame</text>
<polygon fill="none" stroke="black" points="154.5,-230 154.5,-245 224.5,-245 224.5,-230 154.5,-230"/>
<text text-anchor="start" x="157.5" y="-235.6" font-family="Arial" font-size="8.00">id_exame</text>
<polygon fill="none" stroke="black" points="224.5,-230 224.5,-245 270.5,-245 270.5,-230 224.5,-230"/>
<text text-anchor="start" x="227.5" y="-235.6" font-family="Arial" font-size="8.00">INT PK</text>
<polygon fill="none" stroke="black" points="154.5,-215 154.5,-230 224.5,-230 224.5,-215 154.5,-215"/>
<text text-anchor="start" x="157.5" y="-220.6" font-family="Arial" font-size="8.00">id_ficha_medica</text>
<polygon fill="none" stroke="black" points="224.5,-215 224.5,-230 270.5,-230 270.5,-215 224.5,-215"/>
<text text-anchor="start" x="227.5" y="-220.6" font-family="Arial" font-size="8.00">INT FK</text>
<polygon fill="none" stroke="black" points="154.5,-200 154.5,-215 224.5,-215 224.5,-200 154.5,-200"/>
<text text-anchor="start" x="157.5" y="-205.6" font-family="Arial" font-size="8.00">id_tipo_exame</text>
<polygon fill="none" stroke="black" points="224.5,-200 224.5,-215 270.5,-215 270.5,-200 224.5,-200"/>
<text text-anchor="start" x="227.5" y="-205.6" font-family="Arial" font-size="8.00">INT FK</text>
<polygon fill="none" stroke="black" points="154.5,-185 154.5,-200 224.5,-200 224.5,-185 154.5,-185"/>
<text text-anchor="start" x="157.5" y="-190.6" font-family="Arial" font-size="8.00">data_exame</text>
<polygon fill="none" stroke="black" points="224.5,-185 224.5,-200 270.5,-200 270.5,-185 224.5,-185"/>
<text text-anchor="start" x="227.5" y="-190.6" font-family="Arial" font-size="8.00">DATE</text>
<polygon fill="none" stroke="black" points="154.5,-170 154.5,-185 224.5,-185 224.5,-170 154.5,-170"/>
<text text-anchor="start" x="157.5" y="-175.6" font-family="Arial" font-size="8.00">arquivo_exame</text>
<polygon fill="none" stroke="black" points="224.5,-170 224.5,-185 270.5,-185 270.5,-170 224.5,-170"/>
<text text-anchor="start" x="227.5" y="-175.6" font-family="Arial" font-size="8.00">VARCHAR</text>
<polygon fill="none" stroke="black" points="154.5,-155 154.5,-170 224.5,-170 224.5,-155 154.5,-155"/>
<text text-anchor="start" x="157.5" y="-160.6" font-family="Arial" font-size="8.00">arquivo_nome</text>
<polygon fill="none" stroke="black" points="224.5,-155 224.5,-170 270.5,-170 270.5,-155 224.5,-155"/>
<text text-anchor="start" x="227.5" y="-160.6" font-family="Arial" font-size="8.00">VARCHAR</text>
<polygon fill="none" stroke="black" points="154.5,-140 154.5,-155 224.5,-155 224.5,-140 154.5,-140"/>
<text text-anchor="start" x="157.5" y="-145.6" font-family="Arial" font-size="8.00">arquivo_extensao</text>
<polygon fill="none" stroke="black" points="224.5,-140 224.5,-155 270.5,-155 270.5,-140 224.5,-140"/>
<text text-anchor="start" x="227.5" y="-145.6" font-family="Arial" font-size="8.00">VARCHAR</text>
<polygon fill="none" stroke="black" points="153.5,-139 153.5,-261 271.5,-261 271.5,-139 153.5,-139"/>
</g>
<!-- pet_ficha_medica&#45;&gt;pet_exame -->
<g id="edge9" class="edge">
<title>pet_ficha_medica&#45;&gt;pet_exame</title>
<path fill="none" stroke="black" d="M352.43,-314.95C321.3,-275.24 303.15,-253.78 285.27,-239"/>
<polygon fill="black" stroke="black" points="286.72,-237.03 279.71,-234.61 283.69,-240.88 286.72,-237.03"/>
<text text-anchor="middle" x="307.87" y="-270.01" font-family="Arial" font-size="7.00">1:N</text>
</g>
<!-- pet_atendimento -->
<g id="node9" class="node">
<title>pet_atendimento</title>
<polygon fill="#ffffff" stroke="transparent" points="330,-161.5 330,-238.5 441,-238.5 441,-161.5 330,-161.5"/>
<polygon fill="#4a90d9" stroke="transparent" points="331.5,-222 331.5,-237 440.5,-237 440.5,-222 331.5,-222"/>
<polygon fill="none" stroke="black" points="331.5,-222 331.5,-237 440.5,-237 440.5,-222 331.5,-222"/>
<text text-anchor="start" x="352.5" y="-228.6" font-family="Arial" font-weight="bold" font-size="8.00">pet_atendimento</text>
<polygon fill="none" stroke="black" points="331.5,-207 331.5,-222 408.5,-222 408.5,-207 331.5,-207"/>
<text text-anchor="start" x="334.5" y="-212.6" font-family="Arial" font-size="8.00">id_pet_atendimento</text>
<polygon fill="none" stroke="black" points="408.5,-207 408.5,-222 440.5,-222 440.5,-207 408.5,-207"/>
<text text-anchor="start" x="411.5" y="-212.6" font-family="Arial" font-size="8.00">INT PK</text>
<polygon fill="none" stroke="black" points="331.5,-192 331.5,-207 408.5,-207 408.5,-192 331.5,-192"/>
<text text-anchor="start" x="334.5" y="-197.6" font-family="Arial" font-size="8.00">id_ficha_medica</text>
<polygon fill="none" stroke="black" points="408.5,-192 408.5,-207 440.5,-207 440.5,-192 408.5,-192"/>
<text text-anchor="start" x="411.5" y="-197.6" font-family="Arial" font-size="8.00">INT FK</text>
<polygon fill="none" stroke="black" points="331.5,-177 331.5,-192 408.5,-192 408.5,-177 331.5,-177"/>
<text text-anchor="start" x="334.5" y="-182.6" font-family="Arial" font-size="8.00">data_atendimento</text>
<polygon fill="none" stroke="black" points="408.5,-177 408.5,-192 440.5,-192 440.5,-177 408.5,-177"/>
<text text-anchor="start" x="411.5" y="-182.6" font-family="Arial" font-size="8.00">DATE</text>
<polygon fill="none" stroke="black" points="331.5,-162 331.5,-177 408.5,-177 408.5,-162 331.5,-162"/>
<text text-anchor="start" x="334.5" y="-167.6" font-family="Arial" font-size="8.00">descricao</text>
<polygon fill="none" stroke="black" points="408.5,-162 408.5,-177 440.5,-177 440.5,-162 408.5,-162"/>
<text text-anchor="start" x="411.5" y="-167.6" font-family="Arial" font-size="8.00">TEXT</text>
<polygon fill="none" stroke="black" points="330,-161.5 330,-238.5 441,-238.5 441,-161.5 330,-161.5"/>
</g>
<!-- pet_ficha_medica&#45;&gt;pet_atendimento -->
<g id="edge7" class="edge">
<title>pet_ficha_medica&#45;&gt;pet_atendimento</title>
<path fill="none" stroke="black" d="M392.26,-314.8C397.13,-282.83 399,-265.11 397.87,-249.88"/>
<polygon fill="black" stroke="black" points="400.27,-249.26 397.08,-242.56 395.4,-249.78 400.27,-249.26"/>
<text text-anchor="middle" x="391.32" y="-278.4" font-family="Arial" font-size="7.00">1:N</text>
</g>
<!-- pet_tipo_exame -->
<g id="node7" class="node">
<title>pet_tipo_exame</title>
<polygon fill="#ffffff" stroke="transparent" points="147,-334 147,-381 264,-381 264,-334 147,-334"/>
<polygon fill="#4a90d9" stroke="transparent" points="148.5,-364.5 148.5,-379.5 263.5,-379.5 263.5,-364.5 148.5,-364.5"/>
<polygon fill="none" stroke="black" points="148.5,-364.5 148.5,-379.5 263.5,-379.5 263.5,-364.5 148.5,-364.5"/>
<text text-anchor="start" x="174.5" y="-371.1" font-family="Arial" font-weight="bold" font-size="8.00">pet_tipo_exame</text>
<polygon fill="none" stroke="black" points="148.5,-349.5 148.5,-364.5 217.5,-364.5 217.5,-349.5 148.5,-349.5"/>
<text text-anchor="start" x="151.5" y="-355.1" font-family="Arial" font-size="8.00">id_tipo_exame</text>
<polygon fill="none" stroke="black" points="217.5,-349.5 217.5,-364.5 263.5,-364.5 263.5,-349.5 217.5,-349.5"/>
<text text-anchor="start" x="220.5" y="-355.1" font-family="Arial" font-size="8.00">INT PK</text>
<polygon fill="none" stroke="black" points="148.5,-334.5 148.5,-349.5 217.5,-349.5 217.5,-334.5 148.5,-334.5"/>
<text text-anchor="start" x="151.5" y="-340.1" font-family="Arial" font-size="8.00">descricao_exame</text>
<polygon fill="none" stroke="black" points="217.5,-334.5 217.5,-349.5 263.5,-349.5 263.5,-334.5 217.5,-334.5"/>
<text text-anchor="start" x="220.5" y="-340.1" font-family="Arial" font-size="8.00">VARCHAR</text>
<polygon fill="none" stroke="black" points="147,-334 147,-381 264,-381 264,-334 147,-334"/>
</g>
<!-- pet_tipo_exame&#45;&gt;pet_exame -->
<g id="edge8" class="edge">
<title>pet_tipo_exame&#45;&gt;pet_exame</title>
<path fill="none" stroke="black" d="M200.06,-329.99C194.97,-303.77 192.02,-286.29 191.46,-272.26"/>
<polygon fill="black" stroke="black" points="193.91,-272.18 191.38,-265.21 189.01,-272.24 193.91,-272.18"/>
<text text-anchor="middle" x="188.05" y="-298.85" font-family="Arial" font-size="7.00">1:N</text>
</g>
<!-- pet_medicacao -->
<g id="node11" class="node">
<title>pet_medicacao</title>
<polygon fill="#ffffff" stroke="transparent" points="419,-4 419,-81 530,-81 530,-4 419,-4"/>
<polygon fill="#4a90d9" stroke="transparent" points="420.5,-64.5 420.5,-79.5 529.5,-79.5 529.5,-64.5 420.5,-64.5"/>
<polygon fill="none" stroke="black" points="420.5,-64.5 420.5,-79.5 529.5,-79.5 529.5,-64.5 420.5,-64.5"/>
<text text-anchor="start" x="445" y="-71.1" font-family="Arial" font-weight="bold" font-size="8.00">pet_medicacao</text>
<polygon fill="none" stroke="black" points="420.5,-49.5 420.5,-64.5 497.5,-64.5 497.5,-49.5 420.5,-49.5"/>
<text text-anchor="start" x="423.5" y="-55.1" font-family="Arial" font-size="8.00">id_medicacao</text>
<polygon fill="none" stroke="black" points="497.5,-49.5 497.5,-64.5 529.5,-64.5 529.5,-49.5 497.5,-49.5"/>
<text text-anchor="start" x="500.5" y="-55.1" font-family="Arial" font-size="8.00">INT PK</text>
<polygon fill="none" stroke="black" points="420.5,-34.5 420.5,-49.5 497.5,-49.5 497.5,-34.5 420.5,-34.5"/>
<text text-anchor="start" x="423.5" y="-40.1" font-family="Arial" font-size="8.00">id_medicamento</text>
<polygon fill="none" stroke="black" points="497.5,-34.5 497.5,-49.5 529.5,-49.5 529.5,-34.5 497.5,-34.5"/>
<text text-anchor="start" x="500.5" y="-40.1" font-family="Arial" font-size="8.00">INT FK</text>
<polygon fill="none" stroke="black" points="420.5,-19.5 420.5,-34.5 497.5,-34.5 497.5,-19.5 420.5,-19.5"/>
<text text-anchor="start" x="423.5" y="-25.1" font-family="Arial" font-size="8.00">id_pet_atendimento</text>
<polygon fill="none" stroke="black" points="497.5,-19.5 497.5,-34.5 529.5,-34.5 529.5,-19.5 497.5,-19.5"/>
<text text-anchor="start" x="500.5" y="-25.1" font-family="Arial" font-size="8.00">INT FK</text>
<polygon fill="none" stroke="black" points="420.5,-4.5 420.5,-19.5 497.5,-19.5 497.5,-4.5 420.5,-4.5"/>
<text text-anchor="start" x="423.5" y="-10.1" font-family="Arial" font-size="8.00">data_medicacao</text>
<polygon fill="none" stroke="black" points="497.5,-4.5 497.5,-19.5 529.5,-19.5 529.5,-4.5 497.5,-4.5"/>
<text text-anchor="start" x="500.5" y="-10.1" font-family="Arial" font-size="8.00">DATE</text>
<polygon fill="none" stroke="black" points="419,-4 419,-81 530,-81 530,-4 419,-4"/>
</g>
<!-- pet_atendimento&#45;&gt;pet_medicacao -->
<g id="edge11" class="edge">
<title>pet_atendimento&#45;&gt;pet_medicacao</title>
<path fill="none" stroke="black" d="M407.74,-157.46C424.77,-124.97 434.76,-106.24 443.12,-91.7"/>
<polygon fill="black" stroke="black" points="445.46,-92.56 446.87,-85.28 441.23,-90.09 445.46,-92.56"/>
<text text-anchor="middle" x="422.7" y="-120.22" font-family="Arial" font-size="7.00">1:N</text>
</g>
<!-- pet_medicamento -->
<g id="node10" class="node">
<title>pet_medicamento</title>
<polygon fill="#ffffff" stroke="transparent" points="493,-161.5 493,-238.5 634,-238.5 634,-161.5 493,-161.5"/>
<polygon fill="#4a90d9" stroke="transparent" points="494.5,-222 494.5,-237 633.5,-237 633.5,-222 494.5,-222"/>
<polygon fill="none" stroke="black" points="494.5,-222 494.5,-237 633.5,-237 633.5,-222 494.5,-222"/>
<text text-anchor="start" x="529" y="-228.6" font-family="Arial" font-weight="bold" font-size="8.00">pet_medicamento</text>
<polygon fill="none" stroke="black" points="494.5,-207 494.5,-222 587.5,-222 587.5,-207 494.5,-207"/>
<text text-anchor="start" x="497.5" y="-212.6" font-family="Arial" font-size="8.00">id_medicamento</text>
<polygon fill="none" stroke="black" points="587.5,-207 587.5,-222 633.5,-222 633.5,-207 587.5,-207"/>
<text text-anchor="start" x="590.5" y="-212.6" font-family="Arial" font-size="8.00">INT PK</text>
<polygon fill="none" stroke="black" points="494.5,-192 494.5,-207 587.5,-207 587.5,-192 494.5,-192"/>
<text text-anchor="start" x="497.5" y="-197.6" font-family="Arial" font-size="8.00">nome_medicamento</text>
<polygon fill="none" stroke="black" points="587.5,-192 587.5,-207 633.5,-207 633.5,-192 587.5,-192"/>
<text text-anchor="start" x="590.5" y="-197.6" font-family="Arial" font-size="8.00">VARCHAR</text>
<polygon fill="none" stroke="black" points="494.5,-177 494.5,-192 587.5,-192 587.5,-177 494.5,-177"/>
<text text-anchor="start" x="497.5" y="-182.6" font-family="Arial" font-size="8.00">descricao_medicamento</text>
<polygon fill="none" stroke="black" points="587.5,-177 587.5,-192 633.5,-192 633.5,-177 587.5,-177"/>
<text text-anchor="start" x="590.5" y="-182.6" font-family="Arial" font-size="8.00">VARCHAR</text>
<polygon fill="none" stroke="black" points="494.5,-162 494.5,-177 587.5,-177 587.5,-162 494.5,-162"/>
<text text-anchor="start" x="497.5" y="-167.6" font-family="Arial" font-size="8.00">aplicacao</text>
<polygon fill="none" stroke="black" points="587.5,-162 587.5,-177 633.5,-177 633.5,-162 587.5,-162"/>
<text text-anchor="start" x="590.5" y="-167.6" font-family="Arial" font-size="8.00">VARCHAR</text>
<polygon fill="none" stroke="black" points="493,-161.5 493,-238.5 634,-238.5 634,-161.5 493,-161.5"/>
</g>
<!-- pet_medicamento&#45;&gt;pet_medicacao -->
<g id="edge10" class="edge">
<title>pet_medicamento&#45;&gt;pet_medicacao</title>
<path fill="none" stroke="black" d="M554.36,-157.34C546.82,-124.04 540.87,-105.88 529.61,-90.62"/>
<polygon fill="black" stroke="black" points="531.49,-89.05 525.21,-85.11 527.66,-92.11 531.49,-89.05"/>
<text text-anchor="middle" x="537.36" y="-119.55" font-family="Arial" font-size="7.00">1:N</text>
</g>
<!-- pessoa -->
<g id="node12" class="node">
<title>pessoa</title>
<text text-anchor="middle" x="51.5" y="-535.6" font-family="Arial" font-size="8.00">pessoa</text>
</g>
<!-- pessoa&#45;&gt;pet_adocao -->
<g id="edge4" class="edge">
<title>pessoa&#45;&gt;pet_adocao</title>
<path fill="none" stroke="black" d="M43.78,-519.45C22.8,-469.79 19.69,-454.36 34.47,-407.2"/>
<polygon fill="black" stroke="black" points="36.87,-407.74 36.67,-400.33 32.2,-406.25 36.87,-407.74"/>
<text text-anchor="middle" x="19.58" y="-463.29" font-family="Arial" font-size="7.00">1:N</text>
</g>
</g>
</svg>
