<?xml version="1.0" encoding="UTF-8" standalone="no"?>
<!DOCTYPE svg PUBLIC "-//W3C//DTD SVG 1.1//EN"
 "http://www.w3.org/Graphics/SVG/1.1/DTD/svg11.dtd">
<!-- Generated by graphviz version 2.43.0 (0)
 -->
<!-- Title: MER_Memorando Pages: 1 -->
<svg width="295pt" height="509pt"
 viewBox="0.00 0.00 294.50 509.00" xmlns="http://www.w3.org/2000/svg" xmlns:xlink="http://www.w3.org/1999/xlink">
<g id="graph0" class="graph" transform="scale(1 1) rotate(0) translate(4 505)">
<title>MER_Memorando</title>
<polygon fill="white" stroke="transparent" points="-4,4 -4,-505 290.5,-505 290.5,4 -4,4"/>
<!-- memorando -->
<g id="node1" class="node">
<title>memorando</title>
<polygon fill="#ffffff" stroke="transparent" points="8,-319 8,-411 139,-411 139,-319 8,-319"/>
<polygon fill="#4a90d9" stroke="transparent" points="9.5,-395 9.5,-410 138.5,-410 138.5,-395 9.5,-395"/>
<polygon fill="none" stroke="black" points="9.5,-395 9.5,-410 138.5,-410 138.5,-395 9.5,-395"/>
<text text-anchor="start" x="50.5" y="-401.6" font-family="Arial" font-weight="bold" font-size="8.00">memorando</text>
<polygon fill="none" stroke="black" points="9.5,-380 9.5,-395 85.5,-395 85.5,-380 9.5,-380"/>
<text text-anchor="start" x="12.5" y="-385.6" font-family="Arial" font-size="8.00">id_memorando</text>
<polygon fill="none" stroke="black" points="85.5,-380 85.5,-395 138.5,-395 138.5,-380 85.5,-380"/>
<text text-anchor="start" x="88.5" y="-385.6" font-family="Arial" font-size="8.00">INT PK</text>
<polygon fill="none" stroke="black" points="9.5,-365 9.5,-380 85.5,-380 85.5,-365 9.5,-365"/>
<text text-anchor="start" x="12.5" y="-370.6" font-family="Arial" font-size="8.00">id_pessoa</text>
<polygon fill="none" stroke="black" points="85.5,-365 85.5,-380 138.5,-380 138.5,-365 85.5,-365"/>
<text text-anchor="start" x="88.5" y="-370.6" font-family="Arial" font-size="8.00">INT FK</text>
<polygon fill="none" stroke="black" points="9.5,-350 9.5,-365 85.5,-365 85.5,-350 9.5,-350"/>
<text text-anchor="start" x="12.5" y="-355.6" font-family="Arial" font-size="8.00">status_memorando</text>
<polygon fill="none" stroke="black" points="85.5,-350 85.5,-365 138.5,-365 138.5,-350 85.5,-350"/>
<text text-anchor="start" x="88.5" y="-355.6" font-family="Arial" font-size="8.00">ENUM</text>
<polygon fill="none" stroke="black" points="9.5,-335 9.5,-350 85.5,-350 85.5,-335 9.5,-335"/>
<text text-anchor="start" x="12.5" y="-340.6" font-family="Arial" font-size="8.00">titulo</text>
<polygon fill="none" stroke="black" points="85.5,-335 85.5,-350 138.5,-350 138.5,-335 85.5,-335"/>
<text text-anchor="start" x="88.5" y="-340.6" font-family="Arial" font-size="8.00">TEXT</text>
<polygon fill="none" stroke="black" points="9.5,-320 9.5,-335 85.5,-335 85.5,-320 9.5,-320"/>
<text text-anchor="start" x="12.5" y="-325.6" font-family="Arial" font-size="8.00">data</text>
<polygon fill="none" stroke="black" points="85.5,-320 85.5,-335 138.5,-335 138.5,-320 85.5,-320"/>
<text text-anchor="start" x="88.5" y="-325.6" font-family="Arial" font-size="8.00">TIMESTAMP</text>
<polygon fill="none" stroke="black" points="8,-319 8,-411 139,-411 139,-319 8,-319"/>
</g>
<!-- despacho -->
<g id="node2" class="node">
<title>despacho</title>
<polygon fill="#ffffff" stroke="transparent" points="162.5,-154 162.5,-261 278.5,-261 278.5,-154 162.5,-154"/>
<polygon fill="#4a90d9" stroke="transparent" points="163.5,-244.5 163.5,-259.5 277.5,-259.5 277.5,-244.5 163.5,-244.5"/>
<polygon fill="none" stroke="black" points="163.5,-244.5 163.5,-259.5 277.5,-259.5 277.5,-244.5 163.5,-244.5"/>
<text text-anchor="start" x="200.5" y="-251.1" font-family="Arial" font-weight="bold" font-size="8.00">despacho</text>
<polygon fill="none" stroke="black" points="163.5,-229.5 163.5,-244.5 224.5,-244.5 224.5,-229.5 163.5,-229.5"/>
<text text-anchor="start" x="166.5" y="-235.1" font-family="Arial" font-size="8.00">id_despacho</text>
<polygon fill="none" stroke="black" points="224.5,-229.5 224.5,-244.5 277.5,-244.5 277.5,-229.5 224.5,-229.5"/>
<text text-anchor="start" x="227.5" y="-235.1" font-family="Arial" font-size="8.00">INT PK</text>
<polygon fill="none" stroke="black" points="163.5,-214.5 163.5,-229.5 224.5,-229.5 224.5,-214.5 163.5,-214.5"/>
<text text-anchor="start" x="166.5" y="-220.1" font-family="Arial" font-size="8.00">id_memorando</text>
<polygon fill="none" stroke="black" points="224.5,-214.5 224.5,-229.5 277.5,-229.5 277.5,-214.5 224.5,-214.5"/>
<text text-anchor="start" x="227.5" y="-220.1" font-family="Arial" font-size="8.00">INT FK</text>
<polygon fill="none" stroke="black" points="163.5,-199.5 163.5,-214.5 224.5,-214.5 224.5,-199.5 163.5,-199.5"/>
<text text-anchor="start" x="166.5" y="-205.1" font-family="Arial" font-size="8.00">id_remetente</text>
<polygon fill="none" stroke="black" points="224.5,-199.5 224.5,-214.5 277.5,-214.5 277.5,-199.5 224.5,-199.5"/>
<text text-anchor="start" x="227.5" y="-205.1" font-family="Arial" font-size="8.00">INT FK</text>
<polygon fill="none" stroke="black" points="163.5,-184.5 163.5,-199.5 224.5,-199.5 224.5,-184.5 163.5,-184.5"/>
<text text-anchor="start" x="166.5" y="-190.1" font-family="Arial" font-size="8.00">id_destinatario</text>
<polygon fill="none" stroke="black" points="224.5,-184.5 224.5,-199.5 277.5,-199.5 277.5,-184.5 224.5,-184.5"/>
<text text-anchor="start" x="227.5" y="-190.1" font-family="Arial" font-size="8.00">INT FK</text>
<polygon fill="none" stroke="black" points="163.5,-169.5 163.5,-184.5 224.5,-184.5 224.5,-169.5 163.5,-169.5"/>
<text text-anchor="start" x="166.5" y="-175.1" font-family="Arial" font-size="8.00">texto</text>
<polygon fill="none" stroke="black" points="224.5,-169.5 224.5,-184.5 277.5,-184.5 277.5,-169.5 224.5,-169.5"/>
<text text-anchor="start" x="227.5" y="-175.1" font-family="Arial" font-size="8.00">LONGTEXT</text>
<polygon fill="none" stroke="black" points="163.5,-154.5 163.5,-169.5 224.5,-169.5 224.5,-154.5 163.5,-154.5"/>
<text text-anchor="start" x="166.5" y="-160.1" font-family="Arial" font-size="8.00">data</text>
<polygon fill="none" stroke="black" points="224.5,-154.5 224.5,-169.5 277.5,-169.5 277.5,-154.5 224.5,-154.5"/>
<text text-anchor="start" x="227.5" y="-160.1" font-family="Arial" font-size="8.00">TIMESTAMP</text>
<polygon fill="none" stroke="black" points="162.5,-154 162.5,-261 278.5,-261 278.5,-154 162.5,-154"/>
</g>
<!-- memorando&#45;&gt;despacho -->
<g id="edge2" class="edge">
<title>memorando&#45;&gt;despacho</title>
<path fill="none" stroke="black" d="M147.34,-321.53C158.83,-310.03 169.5,-294.84 183.71,-271.28"/>
<polygon fill="black" stroke="black" points="185.91,-272.37 187.41,-265.11 181.71,-269.86 185.91,-272.37"/>
<text text-anchor="middle" x="162.84" y="-297.11" font-family="Arial" font-size="7.00">1:N</text>
</g>
<!-- anexo -->
<g id="node3" class="node">
<title>anexo</title>
<polygon fill="#ffffff" stroke="transparent" points="170.5,-4 170.5,-96 270.5,-96 270.5,-4 170.5,-4"/>
<polygon fill="#4a90d9" stroke="transparent" points="171.5,-80 171.5,-95 269.5,-95 269.5,-80 171.5,-80"/>
<polygon fill="none" stroke="black" points="171.5,-80 171.5,-95 269.5,-95 269.5,-80 171.5,-80"/>
<text text-anchor="start" x="208" y="-86.6" font-family="Arial" font-weight="bold" font-size="8.00">anexo</text>
<polygon fill="none" stroke="black" points="171.5,-65 171.5,-80 223.5,-80 223.5,-65 171.5,-65"/>
<text text-anchor="start" x="174.5" y="-70.6" font-family="Arial" font-size="8.00">id_anexo</text>
<polygon fill="none" stroke="black" points="223.5,-65 223.5,-80 269.5,-80 269.5,-65 223.5,-65"/>
<text text-anchor="start" x="226.5" y="-70.6" font-family="Arial" font-size="8.00">INT PK</text>
<polygon fill="none" stroke="black" points="171.5,-50 171.5,-65 223.5,-65 223.5,-50 171.5,-50"/>
<text text-anchor="start" x="174.5" y="-55.6" font-family="Arial" font-size="8.00">id_despacho</text>
<polygon fill="none" stroke="black" points="223.5,-50 223.5,-65 269.5,-65 269.5,-50 223.5,-50"/>
<text text-anchor="start" x="226.5" y="-55.6" font-family="Arial" font-size="8.00">INT FK</text>
<polygon fill="none" stroke="black" points="171.5,-35 171.5,-50 223.5,-50 223.5,-35 171.5,-35"/>
<text text-anchor="start" x="174.5" y="-40.6" font-family="Arial" font-size="8.00">anexo</text>
<polygon fill="none" stroke="black" points="223.5,-35 223.5,-50 269.5,-50 269.5,-35 223.5,-35"/>
<text text-anchor="start" x="226.5" y="-40.6" font-family="Arial" font-size="8.00">VARCHAR</text>
<polygon fill="none" stroke="black" points="171.5,-20 171.5,-35 223.5,-35 223.5,-20 171.5,-20"/>
<text text-anchor="start" x="174.5" y="-25.6" font-family="Arial" font-size="8.00">extensao</text>
<polygon fill="none" stroke="black" points="223.5,-20 223.5,-35 269.5,-35 269.5,-20 223.5,-20"/>
<text text-anchor="start" x="226.5" y="-25.6" font-family="Arial" font-size="8.00">VARCHAR</text>
<polygon fill="none" stroke="black" points="171.5,-5 171.5,-20 223.5,-20 223.5,-5 171.5,-5"/>
<text text-anchor="start" x="174.5" y="-10.6" font-family="Arial" font-size="8.00">nome</text>
<polygon fill="none" stroke="black" points="223.5,-5 223.5,-20 269.5,-20 269.5,-5 223.5,-5"/>
<text text-anchor="start" x="226.5" y="-10.6" font-family="Arial" font-size="8.00">VARCHAR</text>
<polygon fill="none" stroke="black" points="170.5,-4 170.5,-96 270.5,-96 270.5,-4 170.5,-4"/>
</g>
<!-- despacho&#45;&gt;anexo -->
<g id="edge5" class="edge">
<title>despacho&#45;&gt;anexo</title>
<path fill="none" stroke="black" d="M229.43,-149.9C232.01,-131.48 233.25,-118.56 233.15,-107.62"/>
<polygon fill="black" stroke="black" points="235.59,-107.22 232.87,-100.32 230.69,-107.4 235.59,-107.22"/>
<text text-anchor="middle" x="226.35" y="-127.71" font-family="Arial" font-size="7.00">1:N</text>
</g>
<!-- pessoa -->
<g id="node4" class="node">
<title>pessoa</title>
<text text-anchor="middle" x="220.5" y="-481.1" font-family="Arial" font-size="8.00">pessoa</text>
</g>
<!-- pessoa&#45;&gt;memorando -->
<g id="edge1" class="edge">
<title>pessoa&#45;&gt;memorando</title>
<path fill="none" stroke="black" d="M193.42,-474.84C159.88,-464.08 145.61,-454.99 117.18,-420.73"/>
<polygon fill="black" stroke="black" points="118.83,-418.87 112.49,-415.01 115.04,-421.98 118.83,-418.87"/>
<text text-anchor="middle" x="141.32" y="-454.44" font-family="Arial" font-size="7.00">1:N</text>
</g>
<!-- pessoa&#45;&gt;despacho -->
<g id="edge3" class="edge">
<title>pessoa&#45;&gt;despacho</title>
<path fill="none" stroke="black" d="M227.62,-464.92C234.16,-426.54 235.67,-335.27 232.16,-272.41"/>
<polygon fill="black" stroke="black" points="234.6,-272.12 231.73,-265.27 229.7,-272.41 234.6,-272.12"/>
<text text-anchor="middle" x="227.87" y="-367.67" font-family="Arial" font-size="7.00">1:N</text>
</g>
<!-- pessoa&#45;&gt;despacho -->
<g id="edge4" class="edge">
<title>pessoa&#45;&gt;despacho</title>
<path fill="none" stroke="black" d="M213.38,-464.92C206.84,-426.54 205.33,-335.27 208.84,-272.41"/>
<polygon fill="black" stroke="black" points="211.3,-272.41 209.27,-265.27 206.4,-272.12 211.3,-272.41"/>
<text text-anchor="middle" x="201.13" y="-367.67" font-family="Arial" font-size="7.00">1:N</text>
</g>
</g>
</svg>
